<svg width="131" height="42" viewBox="0 0 131 42" fill="none" xmlns="http://www.w3.org/2000/svg">
<g clip-path="url(#clip0_94_791)">
<path d="M59.9348 34.04H58.0068V38.2589H73.7151V36.3333H59.9348V34.04Z" fill="white"/>
<path d="M53.4203 35.3294H39.4492V37.2688H53.4203V38.2592H55.3459V26.4297H53.4203V35.3294Z" fill="white"/>
<path d="M5.07277 26.9395C2.54741 26.9395 0.5 28.9869 0.5 31.5099C0.5 34.0353 2.54741 36.0827 5.07277 36.0827C7.59814 36.0827 9.64554 34.0353 9.64554 31.5099C9.64554 28.9869 7.59814 26.9395 5.07277 26.9395ZM5.07277 34.056C3.66877 34.056 2.52902 32.9162 2.52902 31.5099C2.52902 30.1036 3.66877 28.9662 5.07277 28.9662C6.47907 28.9662 7.61652 30.1059 7.61652 31.5099C7.61652 32.9185 6.47907 34.056 5.07277 34.056Z" fill="white"/>
<path d="M18.2948 26.4297H16.3691V38.2569H18.2948V26.4297Z" fill="white"/>
<path d="M12.9709 28.3576H10.3076V30.2832H12.9709V32.5489H10.3076V34.4745H12.9709V38.2592H14.8965V26.4297H12.9709V28.3576Z" fill="white"/>
<path d="M70.9324 34.4837H72.8603V26.4297H70.9324V28.9229H68.0439V30.8485H70.9324V34.4837Z" fill="white"/>
<path d="M58.8449 32.9622L62.4962 29.7911L66.1498 32.9622L67.4137 31.5099L64.3253 28.826H66.9863V26.9004H58.0062V28.826H60.6694L57.5811 31.5099L58.8449 32.9622Z" fill="white"/>
<path d="M43.8102 33.9318C45.8897 33.9318 47.5764 32.2475 47.5764 30.1656C47.5764 28.0861 45.8897 26.3994 43.8102 26.3994C41.7306 26.3994 40.0439 28.0838 40.0439 30.1656C40.0462 32.2475 41.7306 33.9318 43.8102 33.9318ZM43.8102 28.4238C44.7707 28.4238 45.552 29.2051 45.552 30.1656C45.552 31.1261 44.773 31.9074 43.8102 31.9074C42.8497 31.9074 42.0684 31.1284 42.0684 30.1656C42.0684 29.2028 42.8497 28.4238 43.8102 28.4238Z" fill="white"/>
<path d="M84.3938 33.542C82.1419 33.542 80.3174 35.3665 80.3174 37.6184C80.3174 39.8703 82.1419 41.6949 84.3938 41.6949C86.6457 41.6949 88.4702 39.8703 88.4702 37.6184C88.4702 35.3688 86.6457 33.542 84.3938 33.542ZM84.3938 39.6681C83.2633 39.6681 82.3441 38.7513 82.3441 37.6184C82.3441 36.4856 83.261 35.5687 84.3938 35.5687C85.5244 35.5687 86.4435 36.4856 86.4435 37.6184C86.4435 38.7513 85.5267 39.6681 84.3938 39.6681Z" fill="white"/>
<path d="M83.9408 30.5039H77.3826V28.8172H83.9408V26.8916H75.457V32.4295H83.9408V30.5039Z" fill="white"/>
<path d="M89.7385 28.9803V26.4297H87.8105V32.9511H89.7385V30.906H92.6292V28.9803H89.7385Z" fill="white"/>
<path d="M29.1362 24.8142L34.373 27.8497L35.3359 26.1814L29.1362 22.5898L22.9365 26.1814L23.8993 27.8497L29.1362 24.8142Z" fill="white"/>
<path d="M30.0992 31.1424V30.3727H36.9905V28.5137H21.2822V30.3727H28.1736V31.1424H21.2822V33.0014H35.0649V33.7712H21.2822V38.259H36.9905V36.4H23.2078V35.6302H36.9905V34.3618V31.1424H30.0992Z" fill="white"/>
<path d="M130.501 0.964844H94.4424V24.6192H130.501V0.964844Z" fill="#E4032E"/>
<path d="M94.6627 8.77498C94.7087 8.79566 94.7638 8.79106 94.8029 8.81864C94.881 8.82094 94.881 8.80025 94.8994 8.74281C94.9338 8.7474 94.9752 8.76349 95.0074 8.74281C95.1085 8.70604 95.0947 8.58655 95.1361 8.48545C95.1452 8.46247 95.1774 8.44408 95.1889 8.42111C95.2073 8.37285 95.1935 8.32 95.2211 8.28093C95.2372 8.27404 95.2487 8.26715 95.2647 8.26025C95.2808 8.23957 95.2785 8.2051 95.2969 8.18442C95.3153 8.16604 95.3498 8.16604 95.3704 8.15225C95.3888 8.12698 95.4049 8.104 95.4233 8.07872C95.4325 8.07413 95.444 8.07183 95.4555 8.06723C95.4601 8.04885 95.4647 8.03047 95.4647 8.01438C95.4899 7.96842 95.5451 7.92706 95.5727 7.8857C95.5795 7.86502 95.5864 7.84204 95.5933 7.82136C95.6186 7.79838 95.6439 7.7777 95.6692 7.75702C95.7404 7.65821 95.8001 7.564 95.8714 7.46978C95.8944 7.43761 95.9403 7.42153 95.9679 7.39395C96.0322 7.40315 96.1172 7.43532 96.1494 7.47898C96.1632 7.49736 96.154 7.53413 96.1701 7.55251C96.1862 7.57089 96.2298 7.564 96.2459 7.58468C96.2597 7.60766 96.2574 7.64442 96.2781 7.66051C96.2988 7.6651 96.3218 7.6674 96.3424 7.672C96.3746 7.69498 96.3884 7.75013 96.4275 7.76851C96.4849 7.79838 96.547 7.7731 96.609 7.80068C96.6572 7.82366 96.6756 7.8903 96.7147 7.92017C96.7354 7.92476 96.7584 7.93625 96.779 7.94085C96.7974 7.96383 96.7859 8.00519 96.7997 8.02817C96.8664 8.13387 97.0571 8.29702 97.1835 8.33838C97.2892 8.37285 97.4523 8.30162 97.5052 8.26485C97.5419 8.23957 97.5649 8.18213 97.6109 8.16834C97.643 8.17293 97.6752 8.17753 97.7074 8.17983C97.7878 8.16374 97.8705 8.15915 97.9647 8.13847C98.2359 8.07183 98.5438 7.996 98.7966 7.92476C98.8402 7.92017 98.8839 7.91787 98.9252 7.91327C98.962 7.89949 99.0057 7.85353 99.0424 7.83744C99.0677 7.83285 99.093 7.83055 99.116 7.82596C99.1367 7.80987 99.1321 7.76851 99.1481 7.75242C99.1642 7.73404 99.1941 7.73174 99.2125 7.72025C99.2998 7.65361 99.355 7.50196 99.371 7.36638C99.5089 7.32961 99.6491 7.2377 99.7663 7.17336C99.8007 7.16187 99.8375 7.15268 99.872 7.14119C99.9133 7.11361 99.9202 7.04008 99.957 7.01251C99.9938 7.00102 100.028 6.99183 100.063 6.98034C100.093 6.95966 100.279 6.71608 100.297 6.67932C100.329 6.62187 100.309 6.54834 100.332 6.4771C100.44 6.10025 100.253 5.67744 100.097 5.42697C100.067 5.37872 100.001 5.36493 99.9685 5.31897C99.718 4.95821 99.2768 4.77208 98.9138 4.52391C98.792 4.44118 98.6311 4.4274 98.507 4.34238C98.4795 4.32399 98.4772 4.27574 98.4542 4.25506C98.4197 4.22978 98.3692 4.22978 98.337 4.20221C98.2175 4.1034 98.098 4.00459 97.9739 3.91267C97.9441 3.8828 97.9165 3.85523 97.8866 3.82535C97.8108 3.78169 97.7464 3.75412 97.6844 3.69667C97.6775 3.67829 97.6706 3.6622 97.6637 3.64152C97.6201 3.59557 97.5396 3.5542 97.5029 3.50365C97.4937 3.47608 97.4822 3.4462 97.4707 3.41633C97.4408 3.37267 97.3742 3.3474 97.342 3.30144C97.303 3.24399 97.2846 3.17965 97.2455 3.1291C97.2064 3.07854 97.2179 3.00961 97.1904 2.94527C97.1398 2.81888 97.0065 2.66493 97.0617 2.44203C97.0847 2.34782 97.1467 2.27888 97.1789 2.20305C97.1881 2.16399 97.1949 2.12493 97.2018 2.08586C97.2064 2.07437 97.3213 1.88135 97.3305 1.86986C97.3512 1.84918 97.3834 1.84459 97.4064 1.8285C97.4937 1.76186 97.5833 1.66535 97.6936 1.62399C97.7556 1.59871 97.8269 1.6148 97.8751 1.60331C97.905 1.59641 97.9395 1.56654 97.9624 1.55965C98.0681 1.52518 98.1509 1.54586 98.2612 1.51829C98.3416 1.49761 98.6909 1.41029 98.7943 1.44246C98.8885 1.47463 98.9712 1.55046 99.0608 1.59182C99.0585 1.66995 99.0241 1.70901 99.0401 1.78484C99.0976 2.0491 99.2056 2.21225 99.4032 2.33173C99.4607 2.36391 99.5618 2.34322 99.6077 2.38459C99.6284 2.42135 99.6008 2.48569 99.6169 2.53625C99.6422 2.61208 99.7065 2.63046 99.7663 2.67412C99.8421 2.66722 99.8973 2.62127 99.9363 2.57761C99.9869 2.5845 100.017 2.61208 100.042 2.64195C100.086 2.64195 100.127 2.64195 100.171 2.64195C100.187 2.63505 100.191 2.59369 100.203 2.57761C100.23 2.54544 100.281 2.53854 100.309 2.50408C100.394 2.50637 100.4 2.53625 100.446 2.55693C100.52 2.5891 100.619 2.5845 100.704 2.60059C100.888 2.42595 101 2.28118 100.95 1.9342C100.95 1.83539 100.95 1.73429 100.95 1.63548C100.94 1.60331 100.897 1.58263 100.888 1.55046C100.858 1.45395 100.936 1.34595 100.908 1.22875C100.897 1.1782 100.858 1.14833 100.846 1.11156C100.846 1.08169 100.846 1.05412 100.846 1.02654C100.837 1.00586 100.821 0.987478 100.803 0.966797H97.4201C97.4064 0.978286 97.3903 0.994371 97.3765 1.00356C97.3558 1.01965 97.3236 1.01965 97.303 1.03573C97.28 1.05412 97.2639 1.09548 97.2386 1.10927C97.1467 1.16671 97.0387 1.18739 96.9514 1.24944C96.9215 1.26782 96.9123 1.31148 96.887 1.33446C96.8526 1.36893 96.7951 1.37582 96.7584 1.41029C96.7147 1.45624 96.7055 1.53437 96.6618 1.58263C96.6389 1.60561 96.6044 1.6171 96.586 1.64697C96.5492 1.70901 96.5561 1.78254 96.5217 1.85148C96.4045 2.08356 96.2758 2.4765 96.3493 2.78442C96.3815 2.9085 96.3447 3.00042 96.393 3.09463C96.4275 3.15897 96.501 3.20493 96.5538 3.25548C96.6435 3.3428 96.7285 3.45999 96.7974 3.56569C96.8388 3.62544 96.8365 3.68748 96.8732 3.75872C96.9261 3.86901 97.0088 3.95404 97.0755 4.04825C97.0915 4.07123 97.0893 4.1011 97.1053 4.12408C97.1582 4.18842 97.234 4.22978 97.2984 4.28493C97.3213 4.30331 97.3259 4.35157 97.3512 4.36995C97.3834 4.39523 97.4247 4.40442 97.4454 4.43429C97.4822 4.48484 97.5052 4.55838 97.5534 4.59514C97.5787 4.61353 97.6201 4.61353 97.6384 4.6365C97.666 4.67327 97.6706 4.72382 97.7028 4.75599C97.7189 4.77208 97.751 4.77208 97.7671 4.78816C97.7924 4.81344 97.8039 4.8617 97.8292 4.88467C97.8613 4.89616 97.8935 4.90765 97.9257 4.91685C97.9762 4.94902 98.013 5.01336 98.0635 5.04553C98.1003 5.0685 98.1348 5.05931 98.1807 5.0777C98.2037 5.08689 98.2267 5.11676 98.2451 5.13055C98.314 5.1765 98.3921 5.19259 98.4588 5.23855C98.5645 5.31438 98.6334 5.44536 98.746 5.51659C98.7047 5.85438 98.4358 6.09336 98.2129 6.25651C98.1417 6.30936 98.0934 6.41966 98.0199 6.46102C97.9487 6.50008 97.8728 6.50468 97.8062 6.54834C97.6729 6.63336 97.5167 6.75285 97.3466 6.79421C97.234 6.82178 97.1904 6.74366 97.0801 6.76204C97.0709 6.76434 97.0433 6.78042 97.0364 6.78272C96.9514 6.7988 96.8411 6.75515 96.74 6.76204C96.6963 6.76893 96.6527 6.77583 96.6113 6.78272C96.6021 6.78042 96.5768 6.75285 96.5676 6.75055C96.4849 6.72527 96.3264 6.74825 96.2574 6.76204C96.2528 6.75744 96.2505 6.75515 96.2459 6.75055C96.2528 6.5897 96.3401 6.42425 96.2988 6.24731C96.1839 5.74868 96.2092 5.43846 95.7243 5.2937C95.6439 5.26842 95.5543 5.23855 95.4555 5.25004C95.4555 5.23855 95.4555 5.22936 95.4555 5.21787C95.4509 5.21787 95.4417 5.21787 95.4348 5.21787C95.4095 5.27302 95.3567 5.35344 95.3819 5.45455C95.3911 5.48902 95.4233 5.54646 95.4118 5.59242C95.4026 5.63378 95.3704 5.68663 95.359 5.7211C95.359 5.73948 95.359 5.75787 95.359 5.77395C95.3521 5.77395 95.3452 5.77395 95.3383 5.77395C95.3314 5.79923 95.3245 5.82451 95.3176 5.84978C95.3107 5.84978 95.3038 5.84978 95.2969 5.84978C95.2969 5.85208 95.3153 5.90263 95.3061 5.92561C95.3015 5.9394 95.2693 5.96238 95.2647 5.97846C95.2349 6.05889 95.2372 6.10714 95.2004 6.17148C95.1384 6.27719 95.0327 6.3714 94.966 6.47251C94.9407 6.51157 94.9407 6.55293 94.9132 6.5897C94.8787 6.63795 94.8144 6.67702 94.7868 6.72987C94.7615 6.77353 94.75 6.81719 94.7109 6.84706C94.6328 6.90221 94.5294 6.95736 94.4375 7.00791V8.52681C94.4467 8.56587 94.4559 8.60494 94.4766 8.63481C94.511 8.67847 94.6121 8.752 94.6627 8.77498Z" fill="white"/>
<path d="M124.788 1.75267C124.769 1.8308 124.719 1.89514 124.691 1.96637C124.659 2.05599 124.668 2.12493 124.638 2.22373C124.618 2.29497 124.565 2.3731 124.542 2.44893C124.498 2.5868 124.464 2.73846 124.425 2.87633C124.413 2.92229 124.429 2.97514 124.445 2.99352C124.438 3.07625 124.383 3.07165 124.36 3.1314C124.326 3.22331 124.342 3.33361 124.307 3.43242C124.296 3.46229 124.261 3.48986 124.255 3.51974C124.25 3.58408 124.248 3.64842 124.245 3.71276C124.172 3.97242 124.098 4.25046 124.032 4.5377C124.006 4.6434 124.009 4.7445 123.99 4.83872C123.99 4.89157 123.99 4.94672 123.99 4.99957C123.967 5.06161 123.912 5.16042 123.894 5.22476C123.873 5.29599 123.91 5.34885 123.882 5.42927C123.859 5.49821 123.806 5.57863 123.786 5.65446C123.765 5.73029 123.797 5.81531 123.786 5.87965C123.781 5.90953 123.751 5.94859 123.744 5.97617C123.744 6.01293 123.744 6.0474 123.744 6.08417C123.721 6.18068 123.696 6.3691 123.648 6.44723C123.65 6.55523 123.613 6.52536 123.551 6.56442C123.51 6.62876 123.533 6.72757 123.51 6.81029C123.496 6.85625 123.462 6.94357 123.434 6.98493C123.413 7.01481 123.358 7.05387 123.351 7.09064C123.331 7.15727 123.492 7.33191 123.51 7.39166C123.54 7.48127 123.499 7.54791 123.521 7.61685C123.542 7.68579 123.547 7.86042 123.531 7.92706C123.526 7.94774 123.51 8.00979 123.521 8.04655C123.544 8.13387 123.588 8.34298 123.639 8.41191C123.664 8.43259 123.689 8.45557 123.715 8.47625C123.735 8.50842 123.735 8.54289 123.756 8.57277C123.802 8.6417 124.025 8.80026 124.16 8.76579C124.209 8.7543 124.261 8.71753 124.3 8.70145C124.358 8.67847 124.418 8.66238 124.45 8.61413C124.533 8.49923 124.507 8.32689 124.546 8.16374C124.553 8.13617 124.581 8.05804 124.578 8.02587C124.569 7.95004 124.516 7.82136 124.546 7.70417C124.588 7.53183 124.613 7.35719 124.654 7.18025C124.657 7.10442 124.659 7.03089 124.664 6.95506C124.657 6.93208 124.629 6.90221 124.643 6.85855C124.647 6.83787 124.677 6.8011 124.684 6.77353C124.7 6.71608 124.684 6.67242 124.705 6.62417C124.719 6.592 124.755 6.55753 124.769 6.51846C124.776 6.4748 124.783 6.43344 124.79 6.38749C124.801 6.35991 124.834 6.32544 124.845 6.29327C124.868 6.21285 124.827 6.11863 124.845 6.0474C124.85 6.02442 124.88 5.99225 124.886 5.97157C124.886 5.92561 124.886 5.87736 124.886 5.8314C124.9 5.78314 124.9 5.71651 124.919 5.64987C124.976 5.44765 125.079 5.21787 125.121 5.01795C125.116 4.97889 125.114 4.93982 125.109 4.90076C125.155 4.69165 125.151 4.46416 125.215 4.26884C125.233 4.21829 125.286 4.18382 125.302 4.14016C125.305 4.08501 125.309 4.03216 125.314 3.97931C125.341 3.90348 125.394 3.81386 125.42 3.74263C125.449 3.65761 125.433 3.58867 125.463 3.51514C125.488 3.4531 125.546 3.35889 125.569 3.28995C125.608 3.17735 125.636 3.06476 125.665 2.95906C125.67 2.9154 125.672 2.87403 125.677 2.83037C125.698 2.77293 125.769 2.72467 125.794 2.66952C125.826 2.59829 125.822 2.52705 125.858 2.45582C125.879 2.41905 125.93 2.37769 125.943 2.33633C125.964 2.28348 125.953 2.19846 125.966 2.14331C125.989 2.0445 125.973 1.86067 125.957 1.77795C125.96 1.73199 125.962 1.68603 125.966 1.63778C125.971 1.56654 125.946 1.53897 125.934 1.49761C125.927 1.42178 125.92 1.34824 125.914 1.27241C125.865 1.16212 125.789 1.05641 125.702 0.966797H124.875C124.845 1.13914 124.829 1.32067 124.792 1.46544C124.762 1.57114 124.811 1.65846 124.788 1.75267Z" fill="white"/>
<path d="M121.886 2.70614C121.87 2.67627 121.828 2.6418 121.812 2.61193C121.782 2.56137 121.796 2.50163 121.768 2.44188C121.727 2.34767 121.527 2.14546 121.44 2.0972C121.378 2.06273 121.325 2.07882 121.247 2.05354C121.199 2.03975 121.139 1.9892 121.097 1.95703C121.061 1.95703 121.045 1.96163 121.024 1.97771C120.976 2.00988 120.994 2.03286 120.969 2.0949C120.957 2.12478 120.916 2.15465 120.904 2.17993C120.886 2.23278 120.93 2.29941 120.939 2.33158C120.934 2.4281 120.93 2.52461 120.927 2.62112C120.921 2.6441 120.891 2.67627 120.884 2.69695C120.888 2.72912 120.891 2.76129 120.895 2.79346C120.884 2.8578 120.829 2.94512 120.81 3.00716C120.803 3.0761 120.794 3.14503 120.79 3.21167C120.764 3.29439 120.709 3.39091 120.684 3.46903C120.656 3.55635 120.675 3.69882 120.64 3.77925C120.633 3.79303 120.606 3.81831 120.597 3.8344C120.562 3.90103 120.532 3.99755 120.511 4.07108C120.507 4.12852 120.505 4.18597 120.5 4.24342C120.493 4.2664 120.454 4.29167 120.447 4.31925C120.447 4.3698 120.447 4.41806 120.447 4.46861C120.397 4.65014 120.295 4.82708 120.243 5.0155C120.238 5.08674 120.238 5.15797 120.233 5.2315C120.21 5.32572 120.206 5.45899 120.169 5.55091C120.151 5.59687 120.1 5.63363 120.084 5.67959C120.079 5.71176 120.077 5.74393 120.075 5.7761C120.059 5.80368 119.875 6.02887 119.85 6.04495C119.792 6.07712 119.749 6.07023 119.677 6.0978C119.673 6.1001 119.533 6.26095 119.528 6.27014C119.471 6.37585 119.59 6.46317 119.539 6.56887C119.5 6.60793 119.461 6.647 119.422 6.68606C119.413 6.72283 119.402 6.75959 119.39 6.79406C119.365 6.83083 119.298 6.84002 119.273 6.87908C119.243 6.92504 119.259 6.98938 119.229 7.02844C119.199 7.06521 119.128 7.06521 119.089 7.09278C119.068 7.11806 119.045 7.14104 119.025 7.16861C118.944 7.22376 118.864 7.24674 118.767 7.2858C118.74 7.29729 118.705 7.33866 118.682 7.35015C118.63 7.35244 118.574 7.35704 118.522 7.35934C118.4 7.3984 118.124 7.41449 117.965 7.38002C117.913 7.38002 117.86 7.38002 117.807 7.38002C117.74 7.36393 117.674 7.32487 117.614 7.30419C117.547 7.28121 117.485 7.2927 117.432 7.26053C117.382 7.22836 117.345 7.17551 117.283 7.15253C117.276 7.0721 117.246 6.98019 117.262 6.87449C117.267 6.84231 117.285 6.77338 117.271 6.72512C117.258 6.66308 117.214 6.55048 117.239 6.46776C117.242 6.45857 117.269 6.43329 117.271 6.4241C117.271 6.39193 117.271 6.35976 117.271 6.32759C117.292 6.27244 117.357 6.2104 117.379 6.13457C117.398 6.07023 117.345 5.97372 117.368 5.90938C117.377 5.8818 117.419 5.83125 117.43 5.80138C117.467 5.71406 117.46 5.62674 117.494 5.53482C117.501 5.51644 117.529 5.48887 117.538 5.47048C117.554 5.37167 117.568 5.27516 117.579 5.17865C117.607 5.09593 117.658 4.97874 117.685 4.88912C117.685 4.85695 117.685 4.82478 117.685 4.79261C117.701 4.74895 117.747 4.70989 117.761 4.66393C117.766 4.61797 117.768 4.57201 117.77 4.52606C117.789 4.50767 117.805 4.48929 117.823 4.47321C117.83 4.42495 117.839 4.37899 117.844 4.33303C117.874 4.27559 117.949 4.24801 117.984 4.16299C117.988 4.13082 117.991 4.09865 117.993 4.06648C118.021 3.97457 118.067 3.85737 118.09 3.75627C118.113 3.65516 118.046 3.45525 118.09 3.38171C118.099 3.2898 118.241 3.12895 118.28 3.02784C118.285 2.98188 118.287 2.93363 118.292 2.88767C118.377 2.51082 118.011 2.37065 117.779 2.26724C117.726 2.24427 117.664 2.24427 117.618 2.21439C117.419 2.2121 117.4 2.49473 117.363 2.65559C117.363 2.70384 117.363 2.75439 117.363 2.80495C117.334 2.91525 117.253 3.03703 117.193 3.12665C117.18 3.14044 117.166 3.15422 117.15 3.16801C117.108 3.27142 117.108 3.36563 117.065 3.46903C116.977 3.68044 116.885 3.87806 116.81 4.11244C116.798 4.1492 116.757 4.16989 116.745 4.19976C116.72 4.2595 116.752 4.32844 116.725 4.38129C116.706 4.41806 116.653 4.46172 116.637 4.50078C116.637 4.52146 116.637 4.54444 116.637 4.56512C116.619 4.62946 116.582 4.70299 116.564 4.75814C116.559 4.78801 116.557 4.81559 116.555 4.84316C116.536 4.88223 116.486 4.93048 116.467 4.97184C116.463 5.00861 116.46 5.04308 116.458 5.07984C116.447 5.11891 116.414 5.17406 116.405 5.20623C116.405 5.2361 116.405 5.26367 116.405 5.29125C116.394 5.33491 116.355 5.38316 116.343 5.41993C116.339 5.47048 116.334 5.51874 116.332 5.56929C116.327 5.58997 116.304 5.63363 116.299 5.65431C116.304 5.69338 116.306 5.73244 116.309 5.7715C116.286 5.8841 116.219 6.04725 116.258 6.2127C116.299 6.40112 116.311 6.59644 116.352 6.79176C116.357 6.86989 116.359 6.95031 116.362 7.02844C116.373 7.03993 116.382 7.04912 116.394 7.06061C116.394 7.10197 116.394 7.14793 116.394 7.18929C116.424 7.2927 116.493 7.40759 116.532 7.49951C116.545 7.53168 116.536 7.55695 116.555 7.58683C116.614 7.64427 116.674 7.70172 116.736 7.75687C116.766 7.78904 116.794 7.82121 116.821 7.85338C116.941 7.92461 117.106 7.92232 117.228 7.99355C117.308 8.03951 117.384 8.13602 117.474 8.17508C117.556 8.21185 117.648 8.23253 117.729 8.25091C117.782 8.25551 117.837 8.25781 117.89 8.2624C118.004 8.29687 118.101 8.34053 118.22 8.3681C118.28 8.38419 118.407 8.3727 118.434 8.3681C118.549 8.3681 118.662 8.3681 118.777 8.3681C118.882 8.34513 119.018 8.31985 119.119 8.29457C119.241 8.2624 119.344 8.30376 119.459 8.27389C119.546 8.25091 119.661 8.22104 119.737 8.17738C119.749 8.1613 119.765 8.14291 119.778 8.12453C119.818 8.09925 119.884 8.09925 119.907 8.06019C119.907 8.0464 119.907 8.03261 119.907 8.01653C119.928 7.97747 119.983 7.95678 120.001 7.90853C120.015 7.87866 120.006 7.84878 120.024 7.82351C120.047 7.78674 120.107 7.76606 120.119 7.71551C120.125 7.69712 120.121 7.54317 120.109 7.511C120.105 7.49721 120.07 7.47193 120.068 7.45585C120.063 7.3961 120.061 7.33406 120.056 7.27432C120.047 7.25134 120.011 7.24215 120.004 7.20997C119.974 7.10657 120.045 7.06061 120.056 6.99397C120.05 6.93423 120.043 6.87219 120.036 6.81244C120.185 6.82163 120.208 6.92504 120.314 6.9641C120.426 7.00776 120.803 6.98708 120.888 6.93193C120.95 6.89287 120.957 6.83542 120.994 6.76878C121.019 6.72512 121.091 6.68836 121.111 6.6401C121.116 6.60793 121.118 6.57576 121.12 6.54589C121.13 6.52061 121.166 6.49534 121.173 6.47006C121.178 6.41951 121.18 6.36895 121.185 6.3207C121.189 6.30002 121.21 6.25406 121.217 6.23568C121.212 6.17823 121.21 6.12078 121.205 6.06333C121.217 6.01508 121.245 5.94155 121.258 5.89099C121.279 5.81516 121.256 5.76002 121.279 5.69797C121.313 5.61295 121.387 5.54631 121.417 5.46129C121.454 5.35789 121.461 5.2407 121.481 5.13959C121.481 5.10053 121.481 5.06146 121.481 5.0224C121.511 4.9167 121.571 4.8018 121.598 4.70069C121.635 4.57201 121.589 4.42265 121.628 4.30316C121.644 4.2595 121.699 4.22044 121.713 4.17448C121.713 4.07337 121.713 3.97457 121.713 3.87576C121.745 3.76086 121.881 3.45984 121.863 3.36103C121.84 3.16112 121.982 2.89916 121.886 2.70614Z" fill="white"/>
<path d="M106.391 7.65773C106.423 7.61177 106.418 7.5819 106.476 7.56122C106.49 7.43943 106.43 7.27628 106.347 7.21654C106.317 7.19356 106.285 7.19356 106.262 7.16369C106.223 7.11083 106.196 7.05569 106.124 7.035C106.09 7.01203 106.049 7.02122 105.996 7.01203C105.775 6.97296 105.646 7.16598 105.486 7.21654C105.467 7.21654 105.451 7.21654 105.433 7.21654C105.407 7.22573 105.366 7.26479 105.338 7.26939C105.306 7.26249 105.274 7.2556 105.242 7.24871C105.205 7.2579 105.196 7.30845 105.168 7.32454C105.111 7.33143 105.054 7.34062 104.996 7.34752C104.978 7.35441 104.936 7.38198 104.911 7.38888C104.863 7.40037 104.844 7.37049 104.782 7.38888C104.741 7.40037 104.69 7.43024 104.642 7.44173C104.523 7.4716 104.431 7.44632 104.311 7.4739C104.162 7.50837 103.99 7.51526 103.852 7.50607C103.792 7.50607 103.732 7.50607 103.67 7.50607C103.608 7.48998 103.535 7.45092 103.477 7.43254C103.436 7.42335 103.392 7.41645 103.351 7.40956C103.3 7.38198 103.241 7.32913 103.181 7.30156C103.13 7.27858 103.091 7.28317 103.041 7.2579C103.011 7.24411 102.979 7.20505 102.944 7.19356C102.907 7.17977 102.887 7.19356 102.859 7.17288C102.813 7.13611 102.73 7.02122 102.698 6.97066C102.678 6.93849 102.678 6.90173 102.657 6.87415C102.62 6.83049 102.56 6.78224 102.528 6.73398C102.519 6.69951 102.507 6.66275 102.496 6.62828C102.462 6.55934 102.388 6.52947 102.367 6.44675C102.347 6.36632 102.395 6.25143 102.409 6.18939C102.409 6.14113 102.409 6.08828 102.409 6.04002C102.418 6.01475 102.452 5.99407 102.462 5.96419C102.487 5.88377 102.464 5.79415 102.494 5.71832C102.512 5.69994 102.528 5.68385 102.547 5.66547C102.572 5.6287 102.57 5.59194 102.588 5.54598C102.599 5.523 102.632 5.49543 102.641 5.47245C102.657 5.37134 102.671 5.27024 102.684 5.17143C102.694 5.14155 102.728 5.12087 102.737 5.0956C102.737 5.06572 102.737 5.03815 102.737 5.01058C102.763 4.9853 102.788 4.96232 102.811 4.93475C102.843 4.88649 102.843 4.84053 102.898 4.81526C102.907 4.80836 102.9 4.81296 102.919 4.80377C103.052 5.05424 103.252 5.10019 103.537 5.18981C103.615 5.21509 103.693 5.16453 103.774 5.18981C103.817 5.20819 103.847 5.24266 103.879 5.26564C103.976 5.32998 104.109 5.39662 104.231 5.42649C104.327 5.42879 104.424 5.43338 104.518 5.43798C104.638 5.46556 104.798 5.46326 104.925 5.42649C104.955 5.4196 104.987 5.38053 105.012 5.37364C105.086 5.38053 105.162 5.38973 105.235 5.39432C105.26 5.38743 105.322 5.36904 105.352 5.36215C105.419 5.34607 105.529 5.38283 105.577 5.37364C105.623 5.36445 105.662 5.3116 105.706 5.29781C105.81 5.26794 105.895 5.32768 105.984 5.29781C106.019 5.28632 106.055 5.24726 106.09 5.23347C106.161 5.2036 106.228 5.20819 106.304 5.18062C106.347 5.16683 106.396 5.13007 106.441 5.11628C106.506 5.09789 106.554 5.10938 106.614 5.08411C106.738 5.03585 106.871 4.96462 106.998 4.92326C107.066 4.91177 107.133 4.90258 107.2 4.89109C107.25 4.87041 107.308 4.81755 107.361 4.79458C107.425 4.767 107.494 4.78538 107.563 4.76241C107.616 4.74402 107.666 4.70266 107.724 4.68658C107.781 4.68428 107.839 4.68198 107.894 4.67738C107.912 4.6613 107.928 4.64062 107.947 4.62223C108.022 4.57168 108.133 4.56938 108.19 4.50504C108.195 4.50504 108.197 4.50504 108.202 4.50504C108.25 4.4407 108.326 4.23619 108.351 4.15117C108.376 4.06155 108.356 3.99951 108.383 3.91679C108.402 3.86164 108.454 3.72836 108.427 3.63645C108.413 3.59738 108.374 3.579 108.351 3.55142C108.333 3.52845 108.353 3.49398 108.342 3.46411C108.321 3.42274 108.259 3.42504 108.225 3.39977C108.204 3.38368 108.209 3.35611 108.192 3.33542C108.169 3.30555 108.117 3.29636 108.087 3.27108C108.061 3.24351 108.036 3.21364 108.011 3.18376C107.963 3.15389 107.885 3.16079 107.841 3.12862C107.751 3.09185 107.756 2.97006 107.703 2.89423C107.643 2.80691 107.554 2.79313 107.48 2.73108C107.436 2.69662 107.443 2.64836 107.418 2.59321C107.386 2.53347 107.301 2.48981 107.246 2.45304C107.237 2.35653 107.225 2.283 107.181 2.20717C107.103 2.18878 107.018 2.15202 106.936 2.13364C106.821 2.10376 106.664 2.18419 106.552 2.13364C106.52 2.10147 106.487 2.06929 106.455 2.03712C106.423 2.03023 106.391 2.02334 106.361 2.01644C106.354 2.00495 106.345 1.99347 106.338 1.98427C106.216 1.92223 105.977 1.92912 105.837 1.88776C105.768 1.86708 105.729 1.91993 105.688 1.92912C105.596 1.93372 105.502 1.93832 105.41 1.94061C105.371 1.94981 105.325 1.96129 105.263 1.96129C105.23 1.93832 105.198 1.91304 105.166 1.88546C105.136 1.8441 105.141 1.78895 105.111 1.74759C105.06 1.66257 104.941 1.60742 104.801 1.60742C104.734 1.65108 104.631 1.6258 104.555 1.66027C104.442 1.71542 104.369 1.78895 104.277 1.8441C104.24 1.86478 104.203 1.86478 104.171 1.88546C104.123 1.91764 104.088 1.98427 104.042 2.01644C104.008 2.03942 103.96 2.03483 103.925 2.05781C103.893 2.09687 103.861 2.13823 103.829 2.175C103.755 2.22555 103.677 2.24393 103.606 2.29449C103.542 2.33815 103.505 2.42087 103.445 2.46683C103.385 2.51049 103.328 2.53117 103.263 2.57253C103.162 2.63917 103.059 2.75406 102.985 2.85057C102.972 2.86896 102.951 2.86896 102.933 2.88274C102.884 2.91951 102.802 3.01602 102.76 3.06428C102.684 3.15849 102.615 3.28947 102.567 3.40666C102.558 3.45721 102.547 3.50777 102.535 3.55832C102.514 3.58589 102.468 3.58819 102.45 3.62266C102.39 3.73985 102.365 3.90989 102.301 4.02019C102.257 4.09372 102.193 4.16266 102.151 4.23389C102.131 4.30513 102.108 4.37636 102.087 4.4476C102.075 4.47977 102.036 4.50734 102.025 4.53492C101.981 4.62453 101.979 4.70266 101.938 4.80147C101.924 4.83824 101.887 4.89568 101.876 4.93015C101.839 5.04275 101.862 5.15764 101.82 5.26334C101.802 5.3116 101.754 5.36904 101.735 5.42419C101.706 5.523 101.729 5.60113 101.703 5.70224C101.694 5.7413 101.657 5.79875 101.65 5.83092C101.657 5.87688 101.664 5.92283 101.671 5.96879C101.65 6.06071 101.639 6.26522 101.671 6.37551C101.687 6.43756 101.738 6.49041 101.768 6.53866C101.788 6.57313 101.781 6.6076 101.8 6.64437C101.818 6.68802 101.862 6.72709 101.887 6.76385C101.924 6.8213 101.915 6.90632 101.951 6.95688C101.965 6.97526 101.986 6.97526 102.004 6.98905C102.048 7.02122 102.186 7.17058 102.218 7.21424C102.255 7.26479 102.257 7.33143 102.291 7.38658C102.335 7.45092 102.418 7.4762 102.464 7.53594C102.491 7.57271 102.505 7.63015 102.537 7.66462C102.567 7.69449 102.613 7.70139 102.643 7.72896C102.666 7.75424 102.687 7.77722 102.707 7.80479C102.751 7.83007 102.786 7.81628 102.836 7.83696C102.88 7.85305 102.912 7.89441 102.965 7.91279C103.008 7.91509 103.05 7.91739 103.093 7.92198C103.119 7.93118 103.16 7.96335 103.188 7.97713C103.231 7.99552 103.275 7.98862 103.314 8.0093C103.346 8.02539 103.374 8.06905 103.411 8.08513C103.44 8.09662 103.473 8.08743 103.498 8.10581C103.532 8.13109 103.569 8.16786 103.615 8.18164C103.684 8.20462 103.774 8.20922 103.829 8.2253C103.9 8.2253 103.971 8.2253 104.042 8.2253C104.323 8.28964 104.72 8.25977 104.971 8.20462C105.021 8.20462 105.072 8.20462 105.12 8.20462C105.474 8.11501 105.842 8.02769 106.136 7.87143C106.196 7.84156 106.352 7.71518 106.391 7.65773ZM103.328 3.91908C103.328 3.86853 103.328 3.81798 103.328 3.76743C103.358 3.73755 103.385 3.70998 103.413 3.68011C103.445 3.61347 103.392 3.5744 103.424 3.51925C103.443 3.49398 103.594 3.31934 103.617 3.30555C103.65 3.28257 103.698 3.28947 103.723 3.26189C103.794 3.17917 103.82 3.05738 103.914 3.00453C103.957 2.99764 103.999 2.99074 104.04 2.98385C104.088 2.96547 104.176 2.931 104.222 2.89883C104.284 2.85287 104.304 2.76325 104.36 2.715C104.399 2.68283 104.449 2.66444 104.488 2.62998C104.55 2.57483 104.589 2.4944 104.649 2.43925C104.693 2.3933 104.769 2.3887 104.819 2.35193C104.904 2.35193 104.989 2.35193 105.077 2.35193C105.251 2.39559 105.403 2.499 105.566 2.55644C105.605 2.55874 105.644 2.56564 105.683 2.56793C105.718 2.57942 105.754 2.62538 105.789 2.64147C105.881 2.68742 105.973 2.70581 106.055 2.75866C106.113 2.79542 106.267 2.96776 106.31 3.02751C106.354 3.08266 106.43 3.08496 106.481 3.13321C106.533 3.18147 106.6 3.41125 106.545 3.48938C106.552 3.51466 106.556 3.51236 106.566 3.53074C106.607 3.53304 106.669 3.53764 106.694 3.52155C106.759 3.52845 106.747 3.55142 106.779 3.58589C106.777 3.687 106.761 3.80879 106.715 3.87543C106.687 3.92828 106.582 3.96964 106.513 3.98113C106.487 3.97653 106.464 3.97423 106.437 3.97194C106.276 4.0064 106.115 4.09372 105.968 4.14198C105.929 4.14198 105.89 4.14198 105.851 4.14198C105.789 4.15806 105.754 4.22011 105.692 4.23849C105.626 4.23619 105.564 4.2316 105.499 4.227C105.327 4.28215 105.1 4.35338 104.913 4.39934C104.773 4.43381 104.638 4.36257 104.497 4.39934C104.325 4.4407 104.114 4.40623 103.921 4.42002C103.817 4.42692 103.732 4.47977 103.622 4.44989C103.528 4.42921 103.401 4.37866 103.3 4.35338C103.227 4.335 103.151 4.35798 103.098 4.32351C103.091 4.32351 103.084 4.32351 103.077 4.32351C103.093 4.14198 103.28 4.06385 103.328 3.91908Z" fill="white"/>
<path d="M109.176 7.27195C109.218 7.3202 109.202 7.38684 109.264 7.4351C109.296 7.45808 109.335 7.46727 109.36 7.49714C109.408 7.56378 109.441 7.62812 109.489 7.69016C109.528 7.74531 109.601 7.78208 109.647 7.82803C109.68 7.8625 109.712 7.89927 109.744 7.93374C109.85 8.01186 109.969 8.03714 110.098 8.09459C110.109 8.09918 110.135 8.13135 110.151 8.13825C110.217 8.15893 110.309 8.14744 110.364 8.13825C110.413 8.13135 110.587 8.17042 110.633 8.18191C110.693 8.18191 110.753 8.18191 110.815 8.18191C110.948 8.21867 111.159 8.21867 111.306 8.24625C111.352 8.23935 111.398 8.23246 111.447 8.22557C111.545 8.23706 111.699 8.26463 111.821 8.23705C111.906 8.21178 111.991 8.1865 112.076 8.16123C112.143 8.15893 112.212 8.15663 112.278 8.15203C112.352 8.13365 112.421 8.09688 112.492 8.0785C112.552 8.07161 112.614 8.06471 112.674 8.05782C112.782 8.00497 112.876 7.91305 112.972 7.84412C112.984 7.83493 112.989 7.80965 113.005 7.80046C113.032 7.79816 113.062 7.79357 113.09 7.79127C113.147 7.77059 113.218 7.74531 113.283 7.71544C113.349 7.68556 113.398 7.60974 113.464 7.58676C113.485 7.58676 113.508 7.58676 113.529 7.58676C113.554 7.55459 113.579 7.52242 113.604 7.49025C113.634 7.47876 113.662 7.46957 113.689 7.45578C113.749 7.41671 113.795 7.34318 113.839 7.28573C113.878 7.23288 113.935 7.20761 113.988 7.16854C114.036 7.13178 114.048 7.07663 114.085 7.02837C114.119 6.98242 114.199 6.98012 114.255 6.95254C114.255 6.95024 114.255 6.94565 114.255 6.94335C114.305 6.91578 114.303 6.87671 114.34 6.84684C114.379 6.81697 114.418 6.81927 114.448 6.7825C114.54 6.66071 114.569 6.49067 114.661 6.36429C114.698 6.31373 114.779 6.28386 114.811 6.22412C114.836 6.17586 114.831 6.1322 114.852 6.08624C114.887 6.01041 114.962 5.93229 114.978 5.84037C114.99 5.77833 114.96 5.57841 114.958 5.50718C114.955 5.47731 114.992 5.41297 115.001 5.3785C115.041 5.21075 114.921 5.06369 114.841 5.00165C114.845 4.91433 114.912 4.88216 114.893 4.78794C114.868 4.65237 114.831 4.54207 114.765 4.44556C114.739 4.42028 114.717 4.39501 114.691 4.36973C114.691 4.32377 114.691 4.27782 114.691 4.22956C114.675 4.1836 114.629 4.14914 114.615 4.08939C114.673 4.05952 114.795 3.92854 114.829 3.87569C114.861 3.82284 114.864 3.7562 114.905 3.71484C114.9 3.62752 114.753 3.39773 114.691 3.37016C114.592 3.33109 114.457 3.35867 114.351 3.32879C114.227 3.29203 113.931 3.08981 113.751 3.13347C113.712 3.14496 113.666 3.18403 113.634 3.20011C113.556 3.23458 113.538 3.24837 113.46 3.27824C113.427 3.28743 113.4 3.33569 113.368 3.34488C113.322 3.35177 113.237 3.35867 113.191 3.36556C113.168 3.37475 113.094 3.37475 113.069 3.38165C113.025 3.39313 112.697 3.29433 112.662 3.27365C112.667 3.24607 112.669 3.23688 112.674 3.2185C112.818 3.2162 112.966 3.2116 113.11 3.20701C113.159 3.2185 113.25 3.22769 113.303 3.20701C113.372 3.18173 113.416 3.1036 113.485 3.08062C113.499 3.01399 113.464 2.94045 113.485 2.86692C113.506 2.79798 113.604 2.74743 113.581 2.64173C113.531 2.42803 113.333 2.38207 113.122 2.33152C113.076 2.33152 113.03 2.33152 112.984 2.33152C112.943 2.31543 112.908 2.28326 112.844 2.27637C112.74 2.3453 112.494 2.30854 112.363 2.3522C112.23 2.39356 112.058 2.4533 111.925 2.50386C111.865 2.51764 111.805 2.53143 111.743 2.54522C111.626 2.59347 111.493 2.68539 111.369 2.72675C111.279 2.75662 111.132 2.77501 111.038 2.83475C110.819 2.97033 110.587 3.09671 110.376 3.24147C110.33 3.27135 110.33 3.34948 110.291 3.38165C110.252 3.40922 110.201 3.40692 110.162 3.4345C110.162 3.44139 110.162 3.44828 110.162 3.45748C110.084 3.51722 110.004 3.57007 109.937 3.63901C109.928 3.66888 109.916 3.69645 109.905 3.72633C109.873 3.76539 109.783 3.7585 109.755 3.79986C109.675 3.92165 109.62 4.05033 109.542 4.17441C109.48 4.27552 109.381 4.36514 109.316 4.46394C109.229 4.59722 109.19 4.74888 109.123 4.90514C109.105 4.95109 109.055 5.00854 109.038 5.0545C109.041 5.09816 109.043 5.14182 109.048 5.18318C109.029 5.22914 108.97 5.28888 108.951 5.33254C108.947 5.39458 108.944 5.45663 108.942 5.51637C108.937 5.52786 108.912 5.56463 108.91 5.58071C108.91 5.63356 108.91 5.68871 108.91 5.74156C108.776 6.18046 108.832 6.83535 109.071 7.18922C109.094 7.22369 109.146 7.23978 109.176 7.27195ZM109.657 6.23331C109.673 6.17356 109.714 6.09773 109.732 6.0288C109.765 5.90471 109.726 5.76454 109.776 5.65424C109.808 5.58071 109.829 5.50488 109.85 5.42905C109.856 5.3785 109.866 5.32795 109.87 5.27969C109.882 5.2728 109.893 5.2659 109.902 5.25901C109.932 5.21305 109.946 5.1625 109.978 5.11884C110.01 5.09126 110.043 5.06369 110.072 5.03152C110.116 4.96948 110.121 4.90054 110.158 4.82931C110.185 4.77646 110.243 4.76497 110.275 4.72131C110.341 4.63399 110.369 4.52369 110.436 4.43177C110.479 4.37203 110.557 4.33756 110.617 4.2916C110.67 4.25254 110.776 4.08939 110.819 4.06641C110.847 4.06182 110.877 4.05722 110.904 4.05492C111.003 4.01586 111.093 3.93314 111.192 3.89637C111.221 3.89177 111.249 3.88948 111.277 3.88488C111.295 3.86879 111.313 3.85041 111.332 3.83203C111.405 3.78377 111.479 3.73782 111.566 3.70335C111.617 3.68267 111.667 3.70105 111.725 3.68037C111.743 3.67348 111.764 3.6459 111.78 3.63671C111.899 3.57467 112.023 3.52411 112.131 3.45518C112.189 3.41841 112.265 3.41382 112.313 3.37016C112.334 3.37475 112.334 3.37475 112.345 3.38165C112.409 3.41382 112.554 3.74701 112.612 3.83203C112.665 3.90786 112.75 3.95841 112.825 4.01586C112.881 4.05722 112.929 4.12386 112.986 4.16522C113.03 4.19509 113.055 4.1928 113.083 4.23875C113.156 4.23645 113.223 4.1928 113.264 4.15373C113.28 4.15373 113.292 4.15373 113.308 4.15373C113.285 4.28701 113.388 4.35824 113.361 4.46394C113.352 4.50301 113.319 4.54897 113.308 4.59263C113.276 4.7236 113.326 4.84769 113.287 4.96718C113.273 5.01084 113.237 5.0522 113.223 5.10735C113.232 5.18088 113.239 5.25901 113.244 5.33254C113.221 5.45203 113.207 5.56233 113.182 5.67722C113.182 5.72778 113.182 5.77833 113.182 5.82658C113.168 5.88633 113.161 5.97365 113.138 6.04029C113.126 6.07246 113.09 6.10003 113.074 6.12531C113.046 6.19195 113.023 6.26088 112.998 6.32752C112.984 6.3459 112.947 6.3505 112.933 6.37118C112.91 6.40565 112.899 6.44701 112.871 6.47918C112.853 6.49067 112.837 6.50216 112.818 6.51135C112.782 6.55501 112.766 6.60786 112.722 6.64003C112.704 6.65612 112.676 6.65612 112.658 6.6722C112.648 6.68139 112.651 6.70667 112.637 6.71586C112.596 6.74573 112.534 6.73654 112.499 6.76871C112.485 6.7825 112.485 6.81237 112.467 6.82386C112.4 6.86293 112.32 6.86063 112.253 6.89739C112.113 6.97552 111.957 7.08122 111.805 7.14556C111.741 7.15476 111.676 7.16625 111.614 7.17774C111.571 7.19612 111.502 7.23518 111.465 7.25356C111.401 7.28344 111.341 7.26735 111.283 7.29493C111.249 7.31561 111.217 7.35237 111.187 7.35927C111.074 7.35697 110.959 7.35237 110.847 7.35008C110.534 7.35008 110.231 7.3248 110.013 7.19842C109.969 7.17314 109.742 6.85833 109.726 6.80318C109.698 6.71127 109.755 6.64922 109.726 6.55731C109.698 6.48607 109.627 6.34361 109.657 6.23331Z" fill="white"/>
<path d="M115.589 24.2511C115.626 24.1041 115.693 23.9731 115.729 23.8122C115.752 23.7042 115.663 23.6215 115.697 23.4791C115.72 23.3802 115.791 23.3527 115.826 23.2745C115.833 23.2355 115.84 23.1964 115.847 23.1573C115.865 23.1137 115.904 23.0608 115.92 23.0172C115.943 22.9574 115.95 22.8839 115.964 22.8242C115.959 22.7851 115.957 22.746 115.952 22.707C115.959 22.6725 115.987 22.6219 115.994 22.5898C116.01 22.5277 115.964 22.4956 115.952 22.4611C115.929 22.3807 115.964 22.1394 115.975 22.0636C115.964 21.9739 115.952 21.8866 115.941 21.7947C115.978 21.5764 115.989 21.342 116.058 21.1628C116.099 21.0548 115.998 21.0019 116.026 20.8939C116.056 20.7951 116.134 20.6848 116.166 20.5952C116.18 20.4918 116.196 20.3884 116.21 20.285C116.221 20.2528 116.262 20.2207 116.274 20.1885C116.292 20.1379 116.279 20.1081 116.306 20.0713C116.393 19.9472 116.793 19.8484 116.989 19.8139C117.025 19.807 117.053 19.83 117.074 19.8346C117.138 19.8507 117.319 19.8553 117.395 19.8346C117.434 19.8231 117.469 19.7818 117.501 19.7703C117.535 19.7657 117.572 19.7634 117.607 19.7588C117.715 19.7105 117.772 19.5864 117.864 19.5244C117.862 19.205 117.579 18.9729 117.352 18.881C117.315 18.8787 117.28 18.8741 117.246 18.8695C117.117 18.835 116.835 18.7569 116.798 18.6443C116.779 18.6099 116.874 18.3341 116.894 18.2813C116.938 18.1618 116.982 17.9435 116.936 17.7872C116.927 17.7527 116.894 17.7068 116.883 17.67C116.853 17.562 116.855 17.4586 116.786 17.392C116.77 17.3874 116.752 17.3851 116.733 17.3805C116.628 17.3184 116.547 17.2013 116.412 17.1668C116.288 17.1346 116.129 17.2541 116.028 17.1668C115.904 17.1668 115.83 17.2403 115.803 17.3391C115.75 17.4264 115.86 17.6379 115.814 17.7665C115.796 17.8125 115.764 17.8814 115.75 17.9389C115.75 17.9963 115.75 18.0538 115.75 18.1112C115.732 18.1687 115.686 18.2422 115.665 18.3019C115.658 18.3525 115.649 18.403 115.642 18.4513C115.624 18.5042 115.585 18.5731 115.568 18.6213C115.564 18.6512 115.562 18.6788 115.557 18.7087C115.532 18.7638 115.47 18.8052 115.44 18.8695C115.302 18.9017 115.038 18.9729 114.875 18.9224C114.815 18.904 114.755 18.8557 114.704 18.835C114.668 18.8327 114.633 18.8304 114.596 18.8259C114.525 18.8006 114.456 18.7339 114.383 18.7087C114.309 18.7018 114.233 18.6949 114.158 18.6857C114.084 18.6673 113.948 18.6167 113.87 18.642C113.829 18.6581 113.799 18.7041 113.765 18.7293C113.774 18.8167 113.813 18.8764 113.829 18.9545C113.824 19.0258 113.822 19.097 113.818 19.1682C113.838 19.2464 113.884 19.2647 113.905 19.3084C113.93 19.3636 113.916 19.4095 113.937 19.4693C113.96 19.5382 114.015 19.66 114.054 19.7266C114.075 19.7611 114.116 19.768 114.151 19.791C114.197 19.8254 114.231 19.8875 114.279 19.9196C114.346 19.9679 114.551 20.0529 114.631 20.0805C114.806 20.1356 115.047 20.0966 115.208 20.1655C115.247 20.3723 115.185 20.5998 115.143 20.7767C115.148 20.8365 115.15 20.8962 115.155 20.9583C115.13 21.064 115.097 21.1973 115.068 21.303C115.068 21.3719 115.068 21.4385 115.068 21.5075C115.051 21.5718 115.022 21.7166 115.035 21.7855C115.045 21.8177 115.07 21.8728 115.058 21.9257C115.054 21.9395 115.031 21.9762 115.026 21.99C115.022 22.0406 115.019 22.0888 115.017 22.1417C114.999 22.1922 114.95 22.2244 114.932 22.2704C114.9 22.3485 114.916 22.4243 114.888 22.5048C114.881 22.5254 114.854 22.5668 114.847 22.5921C114.84 22.6633 114.833 22.7345 114.826 22.8058C114.817 22.8425 114.785 22.877 114.773 22.9115C114.767 22.9735 114.757 23.0333 114.753 23.093C114.732 23.1183 114.709 23.1436 114.688 23.1665C114.622 23.1665 114.587 23.1642 114.539 23.1665C114.544 23.2768 114.58 23.3665 114.603 23.4584C114.603 23.5112 114.603 23.5641 114.603 23.6169C114.608 23.6353 114.631 23.6836 114.636 23.7042C114.661 23.8122 114.573 23.9524 114.615 24.0995C114.661 24.2672 114.695 24.4602 114.773 24.6165H115.571C115.578 24.5912 115.582 24.5705 115.587 24.5499C115.582 24.4511 115.587 24.3522 115.589 24.2511Z" fill="white"/>
<path d="M99.571 24.3799C99.5916 24.35 99.5893 24.311 99.6123 24.2834C99.6422 24.2489 99.6813 24.2374 99.6973 24.1869C99.7318 24.134 99.6973 24.026 99.6881 23.9824C99.6721 23.9272 99.6836 23.8744 99.656 23.8307C99.61 23.7641 99.5112 23.7388 99.4423 23.6928C99.3986 23.663 99.3664 23.6055 99.3251 23.5733C99.286 23.5596 99.247 23.5458 99.2079 23.5297C99.1321 23.4699 99.1413 23.3734 99.0149 23.3573C98.9965 23.1896 98.8494 23.0678 98.6955 23.0356C98.599 23.1138 98.4703 23.1367 98.3623 23.2057C98.3071 23.2424 98.275 23.316 98.2244 23.355C98.1991 23.3734 98.1739 23.378 98.1486 23.3987C98.0957 23.4401 98.1003 23.5113 98.0635 23.571C98.0498 23.594 97.905 23.6905 97.882 23.702C97.8154 23.7043 97.7487 23.7089 97.6798 23.7112C97.4247 23.7847 97.0663 23.7733 96.7928 23.7112C96.6963 23.6882 96.632 23.7089 96.5584 23.679C96.4964 23.6515 96.4229 23.5871 96.3769 23.5389C96.37 23.5251 96.3631 23.5113 96.3562 23.4975C96.3424 23.4975 96.3356 23.4975 96.3241 23.4975C96.2689 23.4722 96.1954 23.4332 96.154 23.3918C96.1241 23.3619 96.1149 23.3206 96.0897 23.2861C96.0621 23.247 96.0093 23.2287 95.9725 23.1988C95.9426 23.1758 95.9357 23.1299 95.9104 23.1023C95.8921 23.0862 95.8645 23.0862 95.8461 23.0701C95.8001 23.0333 95.7657 22.969 95.7174 22.9322C95.7059 22.9276 95.6967 22.9253 95.6853 22.9207C95.66 22.8541 95.637 22.7852 95.6117 22.7185C95.591 22.6841 95.5405 22.6565 95.5244 22.622C95.4647 22.4796 95.552 22.259 95.5129 22.0981C95.5037 22.0567 95.4647 21.9373 95.4715 21.9051C95.4784 21.8614 95.4968 21.7603 95.4807 21.7006C95.4371 21.5374 95.4118 21.4777 95.4578 21.3053C95.4624 21.2755 95.467 21.2479 95.4693 21.2203C95.5612 21.0319 95.7013 20.917 95.7565 20.6826C95.7841 20.5585 95.6944 20.5149 95.6715 20.4482C95.6508 20.3908 95.66 20.2736 95.6485 20.2207C95.6255 20.1127 95.7036 20.1058 95.745 20.0599C95.7887 20.0139 95.7818 19.9289 95.8093 19.8669C95.8369 19.8071 95.8944 19.7589 95.9265 19.706C95.9426 19.6532 95.9564 19.598 95.9702 19.5429C95.9909 19.4969 96.0437 19.4762 96.0667 19.4372C96.0966 19.3866 96.0851 19.32 96.1081 19.2648C96.1793 19.0948 96.3241 18.9293 96.4481 18.803C96.4826 18.7662 96.5217 18.6973 96.5653 18.6766C96.6733 18.6191 96.8273 18.649 96.9491 18.6007C96.9973 18.5824 97.0433 18.5065 97.087 18.4835C97.1467 18.4514 97.1927 18.4514 97.2478 18.4192C97.3236 18.3733 97.4156 18.2767 97.5029 18.2469C97.6798 18.2469 97.8567 18.2469 98.036 18.2469C98.059 18.2538 98.1095 18.2721 98.1325 18.279C98.1807 18.2905 98.2175 18.2767 98.2497 18.2997C98.3807 18.3641 98.5231 18.7685 98.6334 18.8995C98.7414 19.0304 99.1114 19.0235 99.3159 19.0075C99.3573 19.0213 99.4009 19.0373 99.4446 19.0511C99.6813 19.1086 99.9846 18.9638 100.063 18.8581C100.086 18.8282 100.076 18.7823 100.093 18.7409C100.122 18.6743 100.196 18.5433 100.18 18.4422C100.145 18.24 99.8904 18.0309 99.7433 17.9275C99.6973 17.8953 99.6767 17.8355 99.6261 17.8103C99.5365 17.762 99.4744 17.7643 99.3596 17.7344C99.3228 17.7253 99.2814 17.6931 99.2516 17.6816C99.2125 17.6632 98.9023 17.6563 98.877 17.6701C98.8196 17.6701 98.7552 17.6701 98.6978 17.6701C98.6794 17.6494 98.661 17.6287 98.6449 17.6058C98.6013 17.5759 98.5438 17.5345 98.4955 17.5184C98.3324 17.4633 98.0934 17.4541 97.8889 17.4541C97.8085 17.4541 97.7258 17.4541 97.643 17.4541C97.2823 17.5575 96.9146 17.6586 96.6297 17.8401C96.4481 17.955 96.3034 18.1343 96.1494 18.279C96.1264 18.2997 96.0874 18.2997 96.0644 18.3204C96.0161 18.3595 95.9932 18.4077 95.9564 18.4583C95.9104 18.5019 95.8645 18.5456 95.8185 18.587C95.7749 18.6467 95.768 18.7317 95.722 18.7915C95.6738 18.8535 95.5979 18.9018 95.552 18.9638C95.5267 18.9983 95.5221 19.0465 95.4991 19.081C95.4738 19.1155 95.4279 19.1178 95.3911 19.1453L95.2211 19.359C95.1407 19.5107 95.12 19.6876 95.0395 19.8416C95.0166 19.8669 94.9913 19.8921 94.966 19.9174C94.9384 19.9657 94.9384 20.0139 94.9132 20.0668C94.9017 20.0944 94.8626 20.1196 94.8488 20.1426C94.8075 20.2161 94.8144 20.2989 94.7868 20.3885C94.7684 20.4482 94.7247 20.5034 94.6995 20.5493C94.6581 20.6229 94.6765 20.7194 94.6466 20.8067C94.6305 20.8596 94.5892 20.9101 94.5731 20.9561C94.5363 21.0526 94.5478 21.1675 94.5087 21.2663C94.4858 21.3237 94.4628 21.3927 94.4375 21.4616V23.1253C94.4467 23.1505 94.4536 23.1758 94.4674 23.1965C94.4927 23.2424 94.5478 23.2815 94.5731 23.3252C94.5938 23.3642 94.5846 23.4125 94.6167 23.4424C94.6581 23.4837 94.7178 23.5021 94.7523 23.5481C94.8006 23.6101 94.8327 23.6859 94.8925 23.7296C94.943 23.7687 94.9913 23.7916 95.0304 23.8376C95.0487 23.856 95.051 23.8859 95.074 23.9019C95.1062 23.9226 95.1384 23.9249 95.159 23.9548C95.228 24.0467 95.3038 24.1547 95.3934 24.2236C95.4371 24.2558 95.4922 24.265 95.5336 24.2995C95.5887 24.3408 95.5979 24.4305 95.6623 24.4695C95.6967 24.481 95.7335 24.4902 95.768 24.5017C95.8369 24.5362 95.9035 24.5729 95.9771 24.6097H99.2056C99.2056 24.6097 99.2056 24.6097 99.2056 24.6074C99.3113 24.5453 99.502 24.4741 99.571 24.3799Z" fill="white"/>
<path d="M108.579 24.3682C108.579 24.336 108.579 24.3062 108.579 24.2717C108.595 24.212 108.636 24.1131 108.611 24.0258C108.592 23.9569 108.526 23.9293 108.494 23.8742C108.429 23.7662 108.413 23.6605 108.367 23.5318C108.351 23.4881 108.303 23.4376 108.294 23.3916C108.28 23.3434 108.374 23.0607 108.388 22.9941C108.413 22.8861 108.406 22.6149 108.388 22.5115C108.409 22.3254 108.432 22.1393 108.452 21.9531C108.471 21.8888 108.528 21.8727 108.56 21.8245C108.606 21.7532 108.606 21.6521 108.654 21.5901C108.684 21.5487 108.742 21.5326 108.762 21.4821C108.799 21.3925 108.815 21.2914 108.836 21.204C108.836 21.1466 108.836 21.0891 108.836 21.0317C108.859 20.9467 108.916 20.8502 108.944 20.7628C108.951 20.7123 108.958 20.6617 108.965 20.6112C109.001 20.5376 109.112 20.5147 109.155 20.4618C109.259 20.34 109.286 20.1677 109.381 20.0344C109.433 19.954 109.558 19.9517 109.636 19.8942C109.714 19.8368 109.741 19.6989 109.826 19.6484C109.882 19.6162 109.937 19.6185 109.987 19.584C110.026 19.5565 110.045 19.5036 110.072 19.4645C110.134 19.3864 110.3 19.283 110.403 19.2508C110.488 19.2233 110.619 19.2623 110.69 19.2715C110.75 19.2784 110.851 19.2439 110.916 19.2715C110.991 19.3037 111.047 19.391 111.118 19.4324C111.286 19.522 111.414 19.5725 111.492 19.7541C111.499 19.8115 111.504 19.869 111.513 19.9264C111.561 20.0712 111.561 20.1378 111.522 20.301C111.495 20.4205 111.545 20.5606 111.513 20.6663C111.469 20.7973 111.451 20.988 111.417 21.1259C111.417 21.1627 111.417 21.1971 111.417 21.2339C111.387 21.3419 111.32 21.4384 111.288 21.5556C111.292 21.6062 111.295 21.6567 111.299 21.7073C111.295 21.7257 111.263 21.7647 111.256 21.7831C111.246 21.8497 111.233 21.9187 111.224 21.9853C111.191 22.091 111.166 22.2128 111.125 22.33C111.099 22.4081 111.051 22.4885 111.04 22.5874C110.991 22.6103 110.87 22.6195 110.826 22.6517C110.757 22.6977 110.78 22.8125 110.686 22.8424C110.684 23.0331 110.716 22.9412 110.803 23.0148C110.842 23.0469 110.86 23.1365 110.92 23.1756C110.918 23.3319 110.955 23.433 110.996 23.5387C110.962 23.6903 111.127 24.0833 111.21 24.1522C111.263 24.1683 111.315 24.1867 111.368 24.2051C111.529 24.297 111.538 24.3429 111.743 24.2464C111.759 24.2464 111.773 24.2464 111.786 24.2464C111.803 24.2395 111.86 24.1982 111.872 24.1821C112 24.0212 111.865 23.7662 111.957 23.6122C112.025 23.4973 112.145 23.3801 112.191 23.2491C112.196 23.2124 112.198 23.1756 112.202 23.1411C112.225 23.0607 112.264 22.9826 112.287 22.9068C112.292 22.8631 112.294 22.8217 112.297 22.7781C112.326 22.6793 112.402 22.5919 112.437 22.4977C112.444 22.4311 112.451 22.3622 112.457 22.2955C112.462 22.284 112.485 22.2542 112.49 22.2427C112.492 22.1622 112.497 22.0841 112.499 22.006C112.517 21.9439 112.547 21.8589 112.563 21.7923C112.559 21.6889 112.556 21.5855 112.554 21.4821C112.602 21.312 112.731 21.2086 112.779 21.0432C112.772 20.9168 112.763 20.7927 112.756 20.6686C112.8 20.4572 112.779 20.1585 112.726 19.9839C112.724 19.9218 112.719 19.8621 112.715 19.8C112.692 19.715 112.451 19.3726 112.386 19.3405C112.306 19.3014 112.216 19.3152 112.14 19.2646C112.074 19.221 112.021 19.1245 111.947 19.0831C111.874 19.0417 111.8 19.0463 111.734 18.9981C111.658 18.9406 111.626 18.8579 111.52 18.8257C111.272 18.7499 110.92 18.766 110.667 18.8257C110.603 18.8303 110.539 18.8326 110.477 18.8349C110.378 18.8625 110.252 18.9131 110.155 18.9429C110.114 18.9498 110.07 18.9567 110.026 18.9636C109.939 19.005 109.845 19.0693 109.76 19.113C109.64 19.175 109.523 19.2049 109.417 19.2761C109.365 19.3106 109.312 19.3703 109.259 19.4048C109.215 19.4163 109.172 19.4324 109.13 19.4462C109.054 19.4416 109.045 19.414 109.001 19.3818C108.981 19.2922 108.992 19.1268 108.958 19.0371C108.935 18.9797 108.88 18.936 108.861 18.8648C108.861 18.8257 108.861 18.7867 108.861 18.7476C108.854 18.7246 108.818 18.6925 108.808 18.6741C108.802 18.6304 108.795 18.5868 108.788 18.5454C108.712 18.3639 108.558 18.2582 108.308 18.2559C108.268 18.288 108.239 18.2972 108.222 18.3524C108.177 18.4282 108.225 18.6373 108.202 18.7384C108.188 18.7959 108.163 18.874 108.149 18.9222C108.114 19.0348 108.14 19.1359 108.096 19.2325C108.064 19.3037 108.009 19.4002 107.979 19.4783C107.935 19.5978 107.915 19.7173 107.882 19.8414C107.88 19.8805 107.876 19.9195 107.873 19.9586C107.866 19.9747 107.839 19.9976 107.83 20.0137C107.802 20.0666 107.825 20.1263 107.809 20.1953C107.793 20.2619 107.751 20.3354 107.735 20.3998C107.735 20.4434 107.735 20.4848 107.735 20.5285C107.717 20.5997 107.687 20.6824 107.671 20.7422C107.673 20.8134 107.678 20.8846 107.682 20.9559C107.65 21.1259 107.634 21.3051 107.595 21.4706C107.572 21.5671 107.6 21.6406 107.574 21.7279C107.54 21.8451 107.466 21.852 107.416 21.9325C107.384 21.9784 107.365 22.0542 107.349 22.114C107.349 22.1898 107.349 22.2634 107.349 22.3392C107.322 22.5 107.347 22.7551 107.381 22.9068C107.4 22.9895 107.363 23.0262 107.381 23.1113C107.388 23.1503 107.421 23.2078 107.416 23.2514C107.395 23.3434 107.34 23.4238 107.317 23.5088C107.294 23.5961 107.338 23.672 107.349 23.7225C107.349 23.8006 107.349 23.8788 107.349 23.9592C107.354 23.973 107.379 24.0097 107.381 24.0258C107.388 24.1177 107.395 24.212 107.402 24.3039C107.437 24.3981 107.581 24.5245 107.719 24.6164H108.39C108.473 24.5589 108.551 24.4532 108.579 24.3682Z" fill="white"/>
<path d="M103.937 24.1869C103.857 24.1134 103.737 24.1042 103.629 24.0582C103.572 24.0352 103.544 23.9824 103.5 23.9525C103.468 23.9318 103.431 23.9341 103.404 23.9088C103.287 23.8054 103.376 23.6814 103.105 23.6837C103.009 23.7848 102.903 23.7779 102.772 23.8445C102.758 23.8629 102.747 23.8813 102.731 23.8997C102.673 23.9364 102.51 23.964 102.432 23.9318C102.335 23.8928 102.237 23.81 102.154 23.748C102.103 23.6997 102.055 23.6492 102.004 23.5986C101.922 23.5688 101.841 23.5412 101.759 23.5113C101.713 23.4768 101.683 23.3711 101.63 23.3298C101.625 23.2356 101.607 23.1253 101.639 23.0402C101.657 22.9943 101.717 22.9667 101.692 22.8679C101.655 22.7254 101.6 22.5692 101.563 22.4382C101.52 22.2819 101.63 22.1533 101.607 22.0315C101.57 21.85 101.556 21.7488 101.598 21.5604C101.616 21.4685 101.579 21.3628 101.607 21.2824C101.618 21.2479 101.664 21.0848 101.683 21.0572C101.706 21.025 101.747 21.0181 101.779 20.9928C101.793 20.9791 101.788 20.9561 101.8 20.94C101.883 20.8228 102.009 20.7654 102.048 20.5953C102.138 20.6068 102.142 20.7217 102.186 20.7791C102.195 20.7814 102.207 20.786 102.218 20.7883C102.253 20.8251 102.246 20.8619 102.271 20.9055C102.305 20.9676 102.393 21.0043 102.452 21.0457C102.487 21.071 102.519 21.1261 102.56 21.1422C102.613 21.1468 102.666 21.1491 102.721 21.1537C102.797 21.1744 102.884 21.2272 102.956 21.2502C102.995 21.264 103.323 21.3008 103.36 21.2939C103.399 21.2847 103.489 21.2663 103.53 21.2709C103.785 21.3008 104.153 21.2617 104.397 21.1974C104.475 21.1767 104.553 21.2157 104.61 21.2295C104.661 21.241 104.737 21.2157 104.769 21.2203C104.856 21.2295 104.953 21.2571 105.035 21.2617C105.084 21.2479 105.127 21.2318 105.175 21.2203C105.242 21.2042 105.391 21.1813 105.463 21.1974C105.479 21.1997 105.52 21.2157 105.55 21.2088C105.619 21.1905 105.672 21.1353 105.741 21.1123C105.833 21.0779 105.936 21.0917 106.007 21.0457C106.056 21.0158 106.131 20.9239 106.18 20.9055C106.246 20.8825 106.311 20.9055 106.37 20.8848C106.527 20.8343 106.717 20.6321 106.616 20.4138C106.568 20.3104 106.46 20.3173 106.361 20.2644C106.299 20.2322 106.262 20.1794 106.18 20.1564C106.072 20.1265 105.964 20.1334 105.902 20.0599C105.89 20.0461 105.892 20.03 105.913 20.0071C105.943 19.9289 106.028 19.945 106.095 19.9014C106.134 19.8738 106.157 19.8163 106.191 19.7842C106.187 19.7382 106.184 19.6922 106.182 19.6463C106.118 19.5865 106.035 19.5429 105.957 19.4969C105.909 19.3705 106.019 19.2005 105.977 19.1339C105.959 19.0833 105.865 19.0167 105.817 18.9914C105.78 18.8168 105.791 18.4973 105.711 18.3595C105.667 18.2905 105.472 18.2446 105.389 18.2216C105.357 18.2216 105.325 18.2216 105.293 18.2216C105.127 18.155 104.964 18.047 104.801 17.9849C104.665 17.9344 104.495 17.9918 104.332 17.9528C104.268 17.9367 104.185 17.9298 104.095 17.9321C103.902 18.0676 103.712 17.8907 103.475 17.9413C103.236 17.9941 103.126 17.9941 102.953 18.1136C102.884 18.1619 102.832 18.2997 102.76 18.3595C102.671 18.4353 102.556 18.4721 102.473 18.5548C102.425 18.6008 102.395 18.649 102.356 18.7042C102.305 18.7731 102.214 18.8099 102.163 18.8765C102.076 18.9914 101.993 19.1063 101.908 19.2212C101.894 19.2396 101.873 19.2396 101.853 19.2533C101.841 19.2625 101.703 19.4096 101.694 19.4234C101.641 19.4992 101.614 19.5865 101.554 19.6601C101.501 19.7244 101.428 19.7911 101.384 19.8646C101.356 19.9036 101.356 19.9565 101.331 19.9933C101.32 20.0048 101.285 20.0116 101.278 20.0254C101.235 20.0829 101.232 20.1633 101.202 20.2277C101.182 20.2759 101.127 20.3196 101.106 20.3678C101.062 20.4735 101.062 20.5792 101.009 20.6688C100.991 20.6964 100.947 20.7332 100.934 20.7631C100.895 20.8481 100.904 20.9974 100.881 21.0962C100.844 21.2387 100.796 21.3858 100.764 21.5145C100.764 21.5489 100.764 21.5857 100.764 21.6202C100.734 21.7305 100.741 21.889 100.711 22.0154C100.697 22.066 100.669 22.1211 100.656 22.1648C100.649 22.3187 100.644 22.4727 100.635 22.6266C100.626 22.6611 100.591 22.691 100.582 22.7231C100.587 22.7576 100.589 22.7944 100.591 22.8311C100.598 22.9759 100.566 23.1092 100.603 23.2402C100.626 23.3183 100.692 23.3849 100.72 23.4539C100.738 23.4952 100.722 23.5343 100.743 23.5711C100.775 23.6216 100.839 23.6584 100.869 23.7112C100.89 23.7664 100.913 23.8238 100.934 23.8813C100.984 23.964 101.081 24.0697 101.159 24.1271C101.177 24.1409 101.198 24.1409 101.212 24.1593C101.258 24.2214 101.274 24.2926 101.331 24.3408C101.372 24.3776 101.444 24.3707 101.49 24.4052C101.506 24.4167 101.517 24.4534 101.531 24.4695C101.57 24.5132 101.657 24.5729 101.713 24.5982C101.738 24.6028 101.763 24.6074 101.788 24.6097C101.795 24.6097 101.802 24.6166 101.811 24.6212H103.948C104.015 24.5545 104.056 24.4695 104.061 24.3615C104.02 24.3156 103.976 24.2237 103.937 24.1869ZM102.048 20.1357C102.069 20.076 102.333 19.7704 102.388 19.7267C102.423 19.7014 102.471 19.6854 102.496 19.6532C102.519 19.6164 102.524 19.5796 102.549 19.5452C102.583 19.4969 102.648 19.4625 102.675 19.4073C102.698 19.3636 102.694 19.3223 102.719 19.2786C102.751 19.2534 102.783 19.2281 102.813 19.2028C102.836 19.1729 102.836 19.1454 102.857 19.1155C102.903 19.0741 102.949 19.0305 102.995 18.9868C103.006 18.9707 103.004 18.9477 103.018 18.9339C103.133 18.8328 103.266 18.7662 103.392 18.6789C103.424 18.6421 103.457 18.6054 103.489 18.5709C103.562 18.5203 103.663 18.4859 103.755 18.4629C103.794 18.4537 103.836 18.4698 103.863 18.4514C103.999 18.4698 104.135 18.4882 104.268 18.5042C104.332 18.5088 104.397 18.5134 104.459 18.5157C104.482 18.5364 104.502 18.5571 104.523 18.5801C104.594 18.6306 104.67 18.6582 104.737 18.7088C104.757 18.7409 104.78 18.7731 104.801 18.8053C104.957 18.9156 105.09 18.9339 105.143 19.1591C105.169 19.2763 105.09 19.3843 105.067 19.4694C105.033 19.6026 105.035 19.7681 104.98 19.8876C104.966 19.9197 104.925 19.9243 104.907 19.9519C104.874 20.0025 104.877 20.0484 104.854 20.1128C104.831 20.1748 104.769 20.2254 104.757 20.2943C104.525 20.3563 104.298 20.3816 103.978 20.3816C103.875 20.3816 103.771 20.3816 103.668 20.3816C103.473 20.3311 103.273 20.2897 103.061 20.3379C102.951 20.3655 102.82 20.3425 102.731 20.3609C102.632 20.3816 102.563 20.3288 102.505 20.3058C102.367 20.2529 102.216 20.2667 102.11 20.3494C102.066 20.3402 102.076 20.3265 102.048 20.3058C102.048 20.2506 102.048 20.1932 102.048 20.1357Z" fill="white"/>
<path d="M121.373 24.1988C121.38 24.1597 121.35 24.0977 121.341 24.0494C121.322 23.9736 121.366 23.8702 121.341 23.8242C121.292 23.7277 120.973 23.7484 120.837 23.7828C120.578 23.8449 120.332 23.9322 120.081 23.9965C119.962 24.0287 119.819 23.9529 119.73 23.9322C119.698 23.9322 119.665 23.9322 119.633 23.9322C119.544 23.9046 119.376 23.8242 119.302 23.7714C119.263 23.7415 119.256 23.6794 119.227 23.6427C119.222 23.6381 119.102 23.5554 119.086 23.5462C118.969 23.4657 118.829 23.4359 118.776 23.2911C118.732 23.1716 118.829 22.974 118.829 22.82C118.829 22.6638 118.795 22.4386 118.84 22.2938C118.857 22.2433 118.889 22.1674 118.903 22.1008C118.909 22.0296 118.919 21.9583 118.926 21.8871C118.946 21.8182 118.999 21.7538 119.02 21.6826C119.054 21.5746 119.063 21.4896 119.105 21.3816C119.148 21.2805 119.213 21.1908 119.254 21.0828C119.374 21.0622 119.401 21.1403 119.491 21.1679C119.564 21.1931 119.624 21.1817 119.693 21.2115C119.891 21.2919 120.159 21.4206 120.408 21.4482C120.463 21.4528 120.532 21.3954 120.578 21.3839C120.706 21.3494 120.784 21.4321 120.911 21.4045C121.021 21.3793 121.2 21.4137 121.336 21.3839C121.444 21.3609 121.554 21.3218 121.646 21.2988C121.768 21.2644 121.878 21.3586 121.968 21.3839C122.083 21.416 122.416 21.4114 122.533 21.3839C122.591 21.3839 122.648 21.3839 122.703 21.3839C122.873 21.3379 123.101 21.269 123.227 21.1702C123.273 21.1311 123.298 21.0323 123.354 20.9886C123.36 20.8645 123.291 20.6531 123.204 20.6026C123.103 20.5451 122.949 20.5727 122.841 20.5153C122.738 20.4624 122.687 20.3452 122.618 20.2579C122.627 20.166 122.71 20.1361 122.68 20.012C122.666 19.9569 122.616 19.7547 122.637 19.6788C122.643 19.6536 122.683 19.6191 122.692 19.5938C122.717 19.5157 122.701 19.325 122.66 19.2721C122.63 19.1986 122.572 19.2285 122.501 19.1986C122.398 19.1526 122.331 19.0285 122.223 18.9941C122.232 18.8815 122.313 18.762 122.255 18.6517C122.188 18.523 121.993 18.4839 121.871 18.4058C121.814 18.3668 121.825 18.3047 121.786 18.245C121.708 18.1278 121.412 18.0473 121.21 18.0519C121.173 18.0772 121.12 18.0657 121.072 18.0818C121.028 18.0979 120.987 18.1439 120.943 18.1576C120.858 18.1576 120.771 18.1576 120.688 18.1576C120.649 18.1668 120.601 18.1921 120.571 18.2013C120.504 18.2174 120.467 18.1783 120.433 18.1691C120.339 18.1439 120.045 18.2427 119.996 18.2771C119.916 18.3346 119.817 18.4518 119.762 18.5322C119.741 18.5644 119.739 18.5965 119.709 18.6172C119.638 18.6678 119.608 18.7206 119.548 18.7781C119.505 18.8217 119.433 18.8447 119.399 18.8953C119.369 18.9389 119.362 18.9826 119.335 19.0239C119.279 19.1044 119.185 19.1687 119.132 19.2491C119.073 19.3365 119.063 19.4468 119.004 19.5387C118.944 19.6306 118.857 19.7386 118.801 19.8282C118.781 19.8925 118.758 19.9569 118.737 20.0235C118.687 20.1062 118.618 20.2074 118.576 20.3016C118.553 20.3567 118.565 20.4142 118.544 20.4739C118.528 20.5176 118.494 20.5612 118.48 20.6026C118.45 20.6922 118.459 20.7611 118.427 20.8508C118.418 20.876 118.383 20.9059 118.374 20.9243C118.34 20.9909 118.353 21.0691 118.321 21.138C118.275 21.2368 118.204 21.3678 118.172 21.4804C118.167 21.547 118.163 21.6091 118.16 21.6734C118.151 21.7033 118.126 21.7469 118.117 21.7791C118.11 21.8388 118.103 21.894 118.096 21.9514C118.071 22.0296 118.022 22.11 117.999 22.1973C117.976 22.2869 118.02 22.3467 117.99 22.434C117.963 22.5052 117.908 22.5971 117.882 22.6799C117.843 22.804 117.848 23.0613 117.873 23.1831C117.898 23.298 117.855 23.4175 117.894 23.514C117.905 23.5416 117.944 23.5645 117.958 23.5875C118.064 23.7782 118.16 23.9483 118.28 24.1252C118.342 24.2194 118.445 24.2815 118.535 24.3504C118.567 24.3757 118.576 24.4308 118.611 24.4584C118.67 24.5021 118.76 24.5641 118.845 24.6216H121.41C121.451 24.4837 121.347 24.3343 121.373 24.1988ZM119.613 20.3383C119.636 20.297 119.626 20.251 119.645 20.2005C119.675 20.1177 119.732 20.0074 119.762 19.9224C119.783 19.8558 119.764 19.7639 119.803 19.7202C119.815 19.7064 119.845 19.7018 119.858 19.688C119.914 19.6237 119.966 19.5525 120.038 19.5065C120.132 19.4422 120.244 19.3962 120.304 19.302C120.352 19.2308 120.359 19.1526 120.403 19.0768C120.467 18.9573 120.596 18.8125 120.713 18.7436C120.842 18.6678 121.113 18.762 121.235 18.6816C121.426 18.677 121.591 18.8148 121.651 18.9366C121.671 18.9803 121.66 19.0193 121.683 19.0653C121.715 19.1365 121.775 19.2101 121.8 19.2905C121.805 19.3502 121.807 19.4123 121.812 19.472C121.835 19.5616 121.855 19.9109 121.8 19.9868C121.784 20.0074 121.743 20.0258 121.724 20.0511C121.646 20.1683 121.554 20.3659 121.437 20.4371C121.373 20.4762 121.276 20.4325 121.191 20.4578C120.759 20.5957 119.909 20.6554 119.548 20.4486C119.56 20.3866 119.59 20.3797 119.613 20.3383Z" fill="white"/>
<path d="M125.14 24.1107C125.163 24.0532 125.183 23.9958 125.204 23.9383C125.298 23.7798 125.328 23.5109 125.374 23.3064C125.39 23.2421 125.363 23.1708 125.353 23.1249C125.326 22.9939 125.365 22.8399 125.386 22.7503C125.395 22.7044 125.369 22.6837 125.365 22.663C125.349 22.601 125.383 22.3896 125.397 22.3298C125.42 22.2241 125.349 22.1644 125.365 22.0816C125.402 21.9001 125.466 21.7048 125.514 21.5462C125.521 21.4405 125.528 21.3325 125.535 21.2245C125.544 21.2039 125.581 21.1855 125.59 21.1602C125.606 21.1188 125.583 21.0361 125.579 21.0108C125.572 20.9672 125.595 20.9235 125.599 20.8913C125.611 20.8477 125.585 20.7971 125.579 20.7627C125.569 20.7121 125.602 20.48 125.622 20.441C125.636 20.4088 125.682 20.3743 125.696 20.3307C125.696 20.2985 125.696 20.2663 125.696 20.2364C125.712 20.1698 125.744 20.0963 125.781 20.0434C125.815 19.9952 125.87 19.9929 125.919 19.9584C125.939 19.9446 125.981 19.8711 125.992 19.8527C126.013 19.7861 126.036 19.724 126.057 19.6597C126.089 19.5724 126.188 19.5907 126.282 19.5632C126.358 19.5402 126.443 19.5057 126.516 19.4873C126.631 19.4896 126.744 19.4942 126.859 19.4988C126.973 19.4667 127.1 19.3265 127.286 19.3816C127.415 19.4184 127.481 19.5471 127.585 19.6068C127.686 19.6643 127.842 19.6643 127.939 19.724C128.044 19.7907 128.148 19.9056 128.258 19.9699C128.32 20.0067 128.403 20.0181 128.451 20.0664C128.49 20.1055 128.518 20.1675 128.568 20.1951C128.603 20.202 128.639 20.2089 128.674 20.2158C128.729 20.241 128.793 20.2939 128.855 20.3146C129.016 20.3651 129.37 20.2548 129.432 20.1974C129.464 20.1583 129.524 20.0021 129.494 19.9193C129.487 19.8941 129.451 19.8711 129.444 19.8435C129.414 19.7562 129.451 19.6482 129.411 19.5747C129.382 19.5195 129.317 19.4759 129.283 19.4253C129.248 19.377 129.241 19.3196 129.207 19.2736C129.175 19.2323 129.12 19.2277 129.078 19.1978C129.019 19.1519 128.959 19.0898 128.885 19.0576C128.786 19.0163 128.699 19.0209 128.598 18.9818C128.515 18.9542 128.444 18.8761 128.364 18.8439C128.318 18.8256 128.258 18.8485 128.203 18.8324C128.138 18.8141 128.086 18.7589 128.021 18.7359C127.874 18.6877 127.619 18.7015 127.435 18.7038C127.378 18.7428 127.274 18.713 127.201 18.7359C127.157 18.7497 127.107 18.7865 127.061 18.8003C126.973 18.8279 126.923 18.8279 126.836 18.8531C126.734 18.8853 126.643 18.9542 126.546 18.9933C126.468 19.0117 126.39 19.0301 126.314 19.0461C126.243 19.0783 126.178 19.1404 126.112 19.1748C126.059 19.2047 126.001 19.1978 125.953 19.2277C125.868 19.2805 125.781 19.3724 125.707 19.4414C125.705 19.4414 125.7 19.4414 125.698 19.4414C125.687 19.3449 125.677 19.2507 125.666 19.1542C125.657 19.122 125.613 19.0967 125.602 19.0668C125.599 19.037 125.595 19.0094 125.592 18.9795C125.54 18.8623 125.381 18.8324 125.25 18.7888C125.174 18.7635 125.025 18.729 124.951 18.7888C124.862 18.8623 124.931 18.9956 124.898 19.1312C124.862 19.2851 124.841 19.485 124.802 19.6459C124.777 19.7585 124.806 19.8527 124.781 19.9561C124.758 20.048 124.703 20.1353 124.676 20.2112C124.676 20.2387 124.676 20.2617 124.676 20.287C124.657 20.3467 124.623 20.4456 124.6 20.5007C124.593 20.5559 124.586 20.6087 124.579 20.6616C124.558 20.7121 124.508 20.7696 124.494 20.8224C124.494 20.8592 124.494 20.8959 124.494 20.9304C124.462 21.0683 124.448 21.2406 124.418 21.3693C124.418 21.4084 124.418 21.4497 124.418 21.4888C124.409 21.5325 124.377 21.5876 124.365 21.629C124.347 21.6979 124.365 21.753 124.345 21.8105C124.333 21.845 124.294 21.8886 124.28 21.9185C124.273 21.9576 124.267 21.9966 124.26 22.038C124.248 22.0633 124.207 22.0954 124.195 22.123C124.184 22.1713 124.175 22.2218 124.163 22.2724C124.142 22.3114 124.092 22.3643 124.078 22.4102C124.046 22.5067 124.076 22.5941 124.025 22.6676C123.977 22.7388 123.874 22.7986 123.812 22.8583C123.812 22.9893 123.878 22.9755 123.908 23.0628C123.908 23.1456 123.908 23.226 123.908 23.311C123.915 23.3317 123.945 23.3639 123.949 23.3868C123.986 23.5155 123.929 23.6787 123.908 23.7752C123.885 23.8855 123.913 24.044 123.929 24.1268C123.929 24.1934 123.929 24.2623 123.929 24.3313C123.959 24.4232 124.064 24.4783 124.11 24.5542C124.119 24.5725 124.133 24.5909 124.145 24.6093H124.908C124.94 24.5243 124.94 24.414 124.977 24.329C125.011 24.2439 125.094 24.1911 125.14 24.1107Z" fill="white"/>
<path d="M110.605 10.9906C110.591 10.9814 110.573 10.9837 110.561 10.9699C110.543 10.9446 110.557 10.9102 110.541 10.8872C110.492 10.8114 110.396 10.8343 110.327 10.7792C110.293 10.7516 110.26 10.7057 110.221 10.6827C110.148 10.639 109.755 10.5586 109.656 10.5839C109.635 10.5885 109.592 10.6275 109.569 10.6275C109.541 10.6275 109.484 10.6023 109.463 10.5954C109.426 10.5862 109.366 10.6023 109.346 10.6069C109.224 10.6344 109.107 10.6115 109.026 10.5747C109.045 10.4736 109.128 10.3886 109.155 10.2966C109.155 10.2507 109.155 10.2024 109.155 10.1588C109.171 10.0967 109.203 10.0324 109.219 9.97724C109.222 9.9129 109.226 9.84856 109.229 9.78192C109.245 9.71528 109.288 9.49239 109.24 9.41886C109.229 9.35222 109.217 9.39818 109.196 9.36601C109.196 9.33154 109.196 9.29477 109.196 9.25801C109.185 9.21205 109.18 9.09256 109.153 9.0443C109.128 8.99835 109.054 8.97766 109.024 8.9363C108.999 8.90183 109.003 8.86737 108.98 8.8283C108.932 8.74558 108.578 8.58243 108.406 8.62379C108.247 8.65826 108.121 8.70652 107.937 8.7203C107.919 8.81452 107.887 8.91562 107.861 9.01903C107.845 9.09486 107.898 9.1592 107.882 9.21205C107.866 9.26949 107.795 9.34303 107.776 9.40277C107.742 9.50158 107.774 9.60269 107.744 9.70379C107.73 9.74975 107.682 9.77962 107.668 9.82328C107.634 9.92669 107.661 10.0531 107.659 10.1565C107.659 10.2001 107.581 10.2691 107.563 10.3058C107.535 10.3564 107.563 10.4115 107.542 10.4782C107.524 10.5333 107.482 10.6069 107.466 10.6689C107.333 10.6919 107.305 10.5885 107.211 10.5517C106.942 10.4437 106.561 10.4391 106.271 10.531C106.234 10.5402 106.193 10.5333 106.166 10.5517C106.131 10.5632 106.124 10.5678 106.113 10.6046C106.104 10.6161 106.11 10.6069 106.104 10.6275C106.138 10.6666 106.175 10.7057 106.212 10.7447C106.276 10.7907 106.368 10.8321 106.414 10.8941C106.448 10.9446 106.464 10.9952 106.499 11.0435C106.531 11.0733 106.563 11.1009 106.595 11.1285C106.611 11.1561 106.591 11.1928 106.604 11.2273C106.604 11.2273 106.71 11.3422 106.71 11.3445C106.724 11.3537 106.857 11.441 106.862 11.4433C106.942 11.4755 107.02 11.4617 107.087 11.5076C107.121 11.5467 107.158 11.5858 107.193 11.6271C107.197 11.7305 107.154 11.7926 107.128 11.8937C107.124 11.9626 107.121 12.0292 107.117 12.0959C107.101 12.1372 107.03 12.1786 107.032 12.2361C107.032 12.2774 107.087 12.3211 107.076 12.3762C107.064 12.4291 107.025 12.5049 107.011 12.5578C107.016 12.6497 107.018 12.7439 107.02 12.8358C106.928 13.1598 106.928 13.5206 106.839 13.8423C106.846 13.9204 106.853 14.0008 106.86 14.0789C106.846 14.1318 106.811 14.2099 106.793 14.272C106.793 14.3432 106.793 14.4167 106.793 14.4857C106.781 14.5201 106.756 14.5431 106.752 14.5937C106.749 14.596 106.745 14.6006 106.742 14.6052C106.699 14.6075 106.639 14.6121 106.614 14.5937C106.607 14.5937 106.6 14.5937 106.593 14.5937C106.593 14.6879 106.623 14.7499 106.634 14.8189C106.646 14.8786 106.598 14.8878 106.614 14.9475C106.625 14.9866 106.676 15.028 106.687 15.0647C106.715 15.1475 106.68 15.4898 106.666 15.5565C106.653 15.6254 106.676 15.7104 106.687 15.761C106.699 15.8437 106.708 15.9264 106.719 16.0092C106.749 16.1011 106.804 16.1861 106.837 16.2665C106.864 16.3332 106.869 16.3998 106.922 16.4389C106.995 16.4963 107.252 16.6847 107.39 16.6549C107.427 16.6457 107.466 16.6135 107.496 16.5997C107.56 16.5721 107.629 16.5584 107.666 16.5032C107.714 16.4297 107.813 16.0252 107.783 15.8828C107.765 15.7909 107.719 15.5427 107.751 15.4232C107.765 15.3795 107.804 15.3267 107.815 15.283C107.834 15.2072 107.76 15.1704 107.783 15.09C107.802 15.0326 107.85 14.9475 107.871 14.897C107.875 14.8441 107.877 14.789 107.88 14.7361C107.887 14.7109 107.905 14.6626 107.912 14.6396C107.912 14.5868 107.912 14.5316 107.912 14.4788C107.93 14.3915 107.94 14.2812 107.921 14.1663C107.919 14.1479 107.9 14.095 107.912 14.0606C107.921 14.0353 107.958 14.0031 107.965 13.9732C107.965 13.9319 107.965 13.8882 107.965 13.8446C107.988 13.7733 107.972 13.6768 107.997 13.5895C108.004 13.5665 108.034 13.5252 108.041 13.5045C108.059 13.4447 108.022 13.3781 108.02 13.3436C108.015 13.2747 108.059 13.1805 108.073 13.1299C108.089 13.0725 108.05 13.0426 108.073 12.9806C108.084 12.9691 108.096 12.9576 108.105 12.9484C108.11 12.9047 108.112 12.8634 108.116 12.8197C108.126 12.7898 108.16 12.7462 108.169 12.7117C108.174 12.6726 108.178 12.6336 108.178 12.5945C108.195 12.5463 108.241 12.5049 108.254 12.4566C108.254 12.4015 108.254 12.3486 108.254 12.2958C108.266 12.2521 108.305 12.2016 108.319 12.1556C108.358 12.043 108.365 11.8891 108.415 11.7903C108.436 11.7696 108.457 11.7489 108.48 11.7259C108.544 11.7236 108.597 11.68 108.65 11.6938C108.679 11.7029 108.739 11.7374 108.767 11.7466C108.838 11.7466 108.909 11.7466 108.98 11.7466C109.056 11.7673 109.13 11.8086 109.226 11.7673C109.275 11.7466 109.344 11.6616 109.408 11.6708C109.419 11.6731 109.452 11.7006 109.461 11.7029C109.566 11.6983 109.674 11.6961 109.78 11.6938C109.854 11.7121 110.086 11.7834 110.198 11.7466C110.208 11.7443 110.233 11.7167 110.24 11.7144C110.274 11.7098 110.311 11.7075 110.345 11.7029C110.368 11.6938 110.387 11.657 110.41 11.6501C110.467 11.6478 110.525 11.6409 110.58 11.6386C110.66 11.6087 110.736 11.4846 110.761 11.4019C110.826 11.1997 110.704 11.0687 110.605 10.9906Z" fill="white"/>
<path d="M115.759 11.1141C115.727 11.0842 115.716 11.0222 115.686 10.9969C115.626 10.9762 115.571 10.9532 115.513 10.9326C115.467 10.8981 115.451 10.8108 115.408 10.7717C115.277 10.6568 115.109 10.5534 114.96 10.4615C114.836 10.3857 114.583 10.3972 114.438 10.3443C114.385 10.3236 114.387 10.2846 114.351 10.2478C114.33 10.2248 114.197 10.1421 114.169 10.1306C114.04 10.1099 113.914 10.0869 113.785 10.0663C113.696 10.0341 113.599 9.95826 113.507 9.92839C113.369 9.88243 112.947 9.96515 112.866 10.0249C112.832 10.0525 112.832 10.1214 112.802 10.1536C112.779 10.1789 112.733 10.188 112.715 10.2179C112.708 10.257 112.701 10.296 112.694 10.3374C112.671 10.3949 112.618 10.4132 112.607 10.4983C112.597 10.4983 112.586 10.4983 112.574 10.4983C112.528 10.5925 112.45 10.6545 112.393 10.7326C112.266 10.9073 112.152 11.1049 112.071 11.3232C112.071 11.376 112.071 11.4312 112.071 11.484C112.057 11.5254 112 11.5806 111.986 11.6219C111.986 11.6518 111.986 11.6794 111.986 11.7092C111.965 11.7736 111.929 11.8632 111.91 11.9459C111.908 12.0424 111.903 12.1389 111.901 12.2355C111.89 12.286 111.869 12.4147 111.89 12.4813C111.897 12.502 111.926 12.5273 111.931 12.5457C111.952 12.6077 111.924 12.6675 111.952 12.718C111.972 12.7525 112.037 12.7778 112.069 12.8053C112.103 12.8283 112.158 12.9179 112.177 12.9547C112.2 13.0052 112.161 13.042 112.177 13.0949C112.188 13.1385 112.257 13.2396 112.294 13.2672C112.312 13.281 112.335 13.2741 112.349 13.2879C112.377 13.3224 112.388 13.3798 112.423 13.4051C112.703 13.6073 113.11 13.667 113.395 13.8669C113.422 13.906 113.452 13.9451 113.48 13.9841C113.54 14.0439 113.602 14.0738 113.67 14.1243C113.71 14.1496 113.707 14.2024 113.735 14.2415C113.753 14.2668 113.795 14.2668 113.822 14.2829C114.034 14.4069 113.744 14.7631 113.693 14.8412C113.643 14.9194 113.625 15.009 113.567 15.0779C113.521 15.1285 113.441 15.1469 113.383 15.1836C113.33 15.2204 113.278 15.2801 113.222 15.3146C113.172 15.3307 113.124 15.3491 113.073 15.3652C113.059 15.3812 113.045 15.395 113.032 15.4088C113.009 15.4088 112.988 15.4088 112.967 15.4088C112.873 15.4341 112.756 15.441 112.625 15.441C112.561 15.441 112.496 15.441 112.434 15.441C112.388 15.4525 112.363 15.4732 112.294 15.4732C112.303 15.3123 112.453 15.248 112.402 15.0228C112.388 14.9653 112.354 14.9217 112.338 14.8826C112.335 14.8481 112.331 14.8114 112.326 14.7769C112.306 14.7332 112.25 14.7172 112.221 14.6804C112.181 14.6298 112.138 14.5494 112.094 14.5081C112.032 14.4506 111.933 14.4368 111.86 14.3886C111.8 14.3541 111.738 14.2921 111.667 14.2714C111.593 14.2507 111.545 14.2691 111.474 14.2714C111.451 14.2898 111.425 14.3081 111.4 14.3265C111.334 14.4207 111.32 14.577 111.186 14.6046C111.166 14.6161 111.088 14.5839 111.037 14.5839C111.021 14.6 111.012 14.6092 110.984 14.6161C110.98 14.7172 110.934 14.7631 110.908 14.8412C110.874 14.9538 110.881 15.0549 110.844 15.1744C110.812 15.2824 110.757 15.4318 110.727 15.5398C110.711 15.5972 110.745 15.6593 110.748 15.6892C110.741 15.7535 110.734 15.8178 110.727 15.8799C110.732 15.896 110.766 15.9212 110.771 15.9327C110.794 15.9902 110.743 16.0247 110.771 16.0706C110.782 16.0936 110.819 16.0982 110.835 16.1143C111.01 16.3257 111.203 16.2912 111.517 16.2223C111.681 16.1855 111.809 16.259 111.913 16.2866C111.988 16.2958 112.062 16.3027 112.138 16.3096C112.23 16.3395 112.262 16.4429 112.329 16.4911C112.374 16.521 112.437 16.5164 112.478 16.544C112.496 16.567 112.512 16.5922 112.533 16.6175C112.59 16.6795 112.715 16.7738 112.8 16.799C112.834 16.7944 112.871 16.7921 112.905 16.7898C112.96 16.799 113.17 16.8381 113.248 16.8105C113.326 16.7852 113.363 16.6933 113.438 16.6612C113.512 16.6497 113.581 16.6382 113.652 16.629C113.71 16.606 113.765 16.5417 113.824 16.521C113.854 16.5164 113.886 16.5141 113.919 16.5095C113.958 16.4957 114.231 16.3509 114.25 16.3257C114.27 16.2958 114.261 16.2544 114.282 16.22C114.314 16.197 114.346 16.1694 114.378 16.1441C114.456 16.0292 114.512 15.9098 114.592 15.8018C114.659 15.7144 114.776 15.6731 114.817 15.5559C114.849 15.4617 114.824 15.3123 114.808 15.2342C114.776 15.094 114.801 14.9745 114.755 14.8481C114.741 14.8114 114.695 14.7953 114.682 14.7608C114.677 14.7195 114.675 14.6758 114.672 14.6321C114.656 14.5885 114.608 14.5632 114.585 14.5264C114.564 14.4897 114.576 14.4483 114.553 14.4069C114.53 14.3863 114.502 14.3656 114.479 14.3449C114.459 14.3058 114.498 14.2989 114.479 14.2576C114.463 14.2484 114.449 14.2369 114.438 14.2254C114.417 14.1955 114.404 14.1335 114.394 14.0967C114.36 13.9474 114.436 13.8026 114.374 13.7015C114.309 13.5981 114.208 13.5475 114.125 13.4648C114.059 13.3982 114.015 13.3086 113.935 13.2511C113.893 13.2189 113.834 13.2189 113.799 13.1868C113.781 13.173 113.781 13.1385 113.767 13.1224C113.716 13.0788 113.622 13.0811 113.562 13.0466C113.526 13.0259 113.491 12.9731 113.457 12.9501C113.413 12.9248 113.369 12.9294 113.319 12.9064C113.243 12.8766 113.158 12.8329 113.082 12.7892C113.016 12.7479 112.954 12.6812 112.892 12.6399C112.862 12.6307 112.834 12.6192 112.806 12.6077C112.763 12.5755 112.744 12.5112 112.701 12.479C112.703 12.2286 112.756 12.0103 112.806 11.8149C112.834 11.7115 112.779 11.5415 112.806 11.4611C112.841 11.3531 112.942 11.2749 112.997 11.1853C113.041 11.1164 113.05 11.0291 113.103 10.9693C113.147 10.9211 113.248 10.9165 113.305 10.8843C113.369 10.8498 113.484 10.7349 113.54 10.6798C113.574 10.6798 113.604 10.6798 113.636 10.6798C113.714 10.7372 113.657 10.8751 113.677 10.9693C113.693 11.0406 113.728 11.16 113.774 11.206C113.813 11.2313 113.852 11.2543 113.891 11.2818C113.914 11.3117 113.903 11.3577 113.935 11.3783C113.976 11.4036 114.024 11.3944 114.063 11.422C114.098 11.4611 114.132 11.5001 114.169 11.5392C114.201 11.5622 114.245 11.5599 114.275 11.5852C114.298 11.6035 114.309 11.6449 114.328 11.6702C114.378 11.7161 114.429 11.7621 114.477 11.8103C114.498 11.8402 114.512 11.8977 114.541 11.9161C114.599 11.9597 114.682 11.9459 114.755 11.9712C114.773 11.9758 114.801 12.008 114.819 12.0149C114.953 12.0585 115.097 12.0355 115.226 12.0241C115.261 12.0195 115.316 12.0447 115.364 12.0332C115.693 11.9574 115.906 11.9482 115.994 11.6265C116.007 11.5852 115.989 11.5116 115.984 11.4886C115.929 11.2566 115.895 11.2451 115.759 11.1141Z" fill="white"/>
<path d="M105.504 10.9698C105.465 10.9491 105.433 10.9606 105.398 10.9399C105.366 10.9192 105.336 10.8686 105.304 10.8526C105.21 10.8066 105.074 10.7813 104.973 10.7561C104.934 10.7606 104.895 10.7629 104.856 10.7675C104.812 10.7561 104.741 10.7354 104.695 10.7239C104.624 10.7193 104.555 10.717 104.484 10.7147C104.408 10.694 104.263 10.6549 104.15 10.6825C104.061 10.7032 103.957 10.7377 103.884 10.7675C103.826 10.7721 103.769 10.7744 103.714 10.779C103.689 10.8043 103.663 10.8296 103.638 10.8526C103.613 10.8526 103.59 10.8526 103.562 10.8526C103.493 10.8732 103.427 10.9169 103.39 10.9698C103.383 10.9698 103.376 10.9698 103.369 10.9698C103.266 10.8089 103.047 10.5561 102.889 10.455C102.843 10.4412 102.797 10.4275 102.751 10.4137C102.73 10.3976 102.735 10.37 102.719 10.3493C102.694 10.3149 102.611 10.2712 102.569 10.2528C102.48 10.2138 102.358 10.262 102.25 10.2298C102.225 10.2252 102.188 10.1954 102.163 10.1885C102.089 10.1885 102.013 10.1885 101.938 10.1885C101.91 10.2321 101.859 10.2735 101.843 10.3286C101.77 10.5469 101.988 10.7423 101.938 10.9284C101.908 11.041 101.878 11.2225 101.853 11.3466C101.843 11.4018 101.873 11.45 101.853 11.5189C101.841 11.558 101.811 11.6017 101.8 11.6476C101.8 11.7143 101.8 11.7832 101.8 11.8521C101.768 11.9946 101.768 12.1738 101.724 12.3232C101.715 12.3577 101.68 12.4059 101.671 12.4404C101.671 12.4864 101.671 12.5277 101.671 12.5714C101.666 12.5829 101.643 12.615 101.639 12.6242C101.639 12.7001 101.639 12.7736 101.639 12.8494C101.614 12.9436 101.561 13.0677 101.586 13.1918C101.581 13.2332 101.579 13.2791 101.575 13.3205C101.577 13.3527 101.593 13.3825 101.597 13.4055C101.618 13.4974 101.565 13.5847 101.545 13.6514C101.529 13.6996 101.478 13.7892 101.501 13.8329C101.485 13.9317 101.363 13.9386 101.331 14.0581C101.306 14.1454 101.313 14.3063 101.331 14.3913C101.356 14.5154 101.322 14.6211 101.349 14.7337C101.384 14.8601 101.448 14.975 101.478 15.1082C101.496 15.1795 101.473 15.2875 101.469 15.3426C101.453 15.5218 101.48 15.6827 101.51 15.8045C101.529 15.8826 101.485 16.0021 101.519 16.0618C101.526 16.1561 101.597 16.1813 101.637 16.2434C101.742 16.4088 101.83 16.5743 102.032 16.6409C102.096 16.6616 102.183 16.6317 102.257 16.6524C102.28 16.657 102.333 16.6892 102.363 16.6823C102.471 16.6639 102.675 16.5421 102.717 16.4479C102.765 16.3307 102.717 16.1859 102.696 16.094C102.68 16.0343 102.714 16.0182 102.696 15.963C102.677 15.9171 102.632 15.8734 102.62 15.8252C102.629 15.7677 102.636 15.7103 102.641 15.6528C102.632 15.6115 102.583 15.5471 102.599 15.492C102.606 15.4667 102.645 15.4483 102.632 15.3955C102.627 15.3725 102.597 15.3495 102.588 15.3311C102.588 15.3058 102.588 15.2829 102.588 15.2553C102.558 15.1381 102.551 15.0048 102.514 14.8922C102.501 14.8509 102.461 14.8118 102.45 14.7727C102.432 14.7084 102.478 14.6578 102.482 14.6119C102.487 14.5728 102.457 14.497 102.473 14.4418C102.482 14.4028 102.505 14.3315 102.514 14.2925C102.524 14.2488 102.498 14.2281 102.494 14.2052C102.496 14.1316 102.501 14.0558 102.503 13.9823C102.482 13.9064 102.484 13.8076 102.503 13.7249C102.503 13.6858 102.503 13.6468 102.503 13.6077C102.524 13.5847 102.547 13.5641 102.567 13.5434C102.604 13.4767 102.632 13.3986 102.664 13.3389C102.694 13.2837 102.677 13.2102 102.728 13.178C102.79 13.1412 102.859 13.1344 102.919 13.093C102.965 13.0608 102.985 12.9919 103.024 12.9528C103.075 12.9046 103.169 12.8862 103.206 12.8264C103.234 12.7782 103.286 12.4335 103.236 12.3531C103.236 12.2244 103.229 12.1141 103.291 12.0544C103.321 12.0199 103.371 12.0084 103.397 11.967C103.429 11.9142 103.445 11.8521 103.493 11.8177C103.541 11.7832 103.615 11.7717 103.643 11.7212C103.686 11.6453 103.668 11.5419 103.718 11.4753C103.783 11.2938 104.183 11.3305 104.348 11.3995C104.357 11.4109 104.371 11.4201 104.38 11.4316C104.431 11.4408 104.481 11.4477 104.532 11.4546C104.55 11.4615 104.578 11.4983 104.596 11.5075C104.635 11.5212 104.674 11.5373 104.713 11.5511C104.81 11.6086 104.918 11.7051 105.033 11.7441C105.093 11.7625 105.145 11.7418 105.194 11.7326C105.281 11.7326 105.371 11.7326 105.458 11.7326C105.612 11.6913 105.699 11.5879 105.736 11.4316C105.789 11.2294 105.605 11.0249 105.504 10.9698Z" fill="white"/>
<path d="M94.5983 16.6089C94.6672 16.6434 94.6718 16.7422 94.8235 16.7077C94.8878 16.6893 94.9522 16.671 95.0142 16.6549C95.0625 16.6135 95.0625 16.5607 95.1314 16.5354C95.1475 16.4021 95.1636 16.2321 95.1957 16.0965C95.2256 15.9632 95.1429 15.8713 95.1866 15.7518C95.2762 15.4967 95.414 15.2647 95.506 15.0234C95.5289 14.9636 95.5014 14.897 95.5266 14.8281C95.5496 14.8051 95.5772 14.7775 95.6025 14.7545C95.6094 14.7017 95.6163 14.6465 95.6231 14.5937C95.6576 14.5477 95.6875 14.4995 95.7197 14.4535C95.6967 14.3616 95.7633 14.3409 95.784 14.272C95.7863 14.2076 95.7909 14.1433 95.7932 14.079C95.8093 14.0284 95.8644 14.0008 95.8874 13.9618C95.9035 13.9181 95.9173 13.8767 95.9288 13.8331C96.0207 13.817 96.1517 13.8331 96.216 13.8767C96.2344 13.8951 96.2528 13.9112 96.2688 13.9296C96.3286 13.9549 96.4389 13.9572 96.494 13.971C96.6227 14.0054 96.8272 13.9847 96.9421 13.9618C97.1191 13.9227 97.4132 13.9595 97.5717 13.9939C97.6706 14.0146 97.6889 13.9687 97.774 14.0169C97.7855 14.0491 97.8107 14.1019 97.8176 14.1226C97.8406 14.1916 97.7694 14.2904 97.7533 14.3363C97.7441 14.4144 97.7326 14.488 97.7211 14.5615C97.7004 14.6304 97.6591 14.7178 97.6361 14.7982C97.5947 14.9522 97.6407 15.1015 97.5626 15.2049C97.5442 15.2279 97.5189 15.2463 97.4867 15.2279C97.4247 15.2256 97.3833 15.2302 97.3489 15.2486C97.3557 15.352 97.3994 15.4163 97.4247 15.4945C97.427 15.5312 97.4316 15.568 97.4339 15.6025C97.4592 15.6783 97.512 15.7702 97.5419 15.8368C97.5488 15.8828 97.5557 15.931 97.5626 15.977C97.5901 16.0574 97.6591 16.1149 97.7004 16.1792C97.7188 16.2298 97.7372 16.2803 97.7533 16.3309C97.8314 16.4458 98.0474 16.517 98.1485 16.6204C98.3944 16.6112 98.6701 16.2757 98.7368 16.0735C98.762 15.9954 98.7299 15.9035 98.7597 15.8162C98.7827 15.7472 98.8471 15.6346 98.8655 15.5588C98.8609 15.5335 98.8586 15.5105 98.854 15.4853C98.8586 15.3658 98.8609 15.2486 98.8655 15.1314C98.9298 14.8487 98.9206 14.5064 99.0033 14.2306C99.0654 14.2145 99.1481 14.1801 99.2078 14.1663C99.2997 14.1778 99.3917 14.187 99.4859 14.1984C99.7846 14.1594 100.143 14.1088 100.212 13.8331C100.237 13.7297 100.168 13.663 100.148 13.5987C100.099 13.4539 100.049 13.3712 99.934 13.3C99.8857 13.2862 99.8352 13.2701 99.7869 13.2563C99.7386 13.2264 99.7042 13.1575 99.6467 13.1368C99.5617 13.1345 99.4767 13.1299 99.3917 13.1276C99.3549 13.1184 99.3319 13.0863 99.3043 13.0748C99.24 13.0656 99.1757 13.0518 99.1136 13.0426C99.07 13.0242 99.0332 12.9714 98.9872 12.9461C98.9643 12.8335 98.9872 12.6979 99.0079 12.5922C99.0079 12.4934 99.0079 12.3992 99.0079 12.3027C99.0125 12.2797 99.0332 12.2154 99.0401 12.1855C99.0401 12.1304 99.0401 12.0775 99.0401 12.0247C99.0562 11.9764 99.109 11.9304 99.1251 11.8845C99.1366 11.7489 99.1458 11.6133 99.1573 11.4778C99.1596 11.2526 98.8884 10.9056 99.0493 10.6942C99.0929 10.6115 99.1918 10.623 99.2837 10.5885C99.3848 10.5517 99.5226 10.4759 99.5709 10.3863C99.5778 10.3472 99.587 10.3081 99.5939 10.2668C99.6674 10.0163 99.4905 9.86466 99.3687 9.74287C99.3388 9.7107 99.3112 9.67853 99.2837 9.64636C99.1826 9.59351 99.0263 9.58202 98.9114 9.54985C98.7965 9.51768 98.6196 9.57512 98.5277 9.51768C98.4403 9.51078 98.3346 9.39589 98.2818 9.34534C98.2129 9.35683 98.183 9.39819 98.1324 9.43036C98.1278 9.43266 98.1255 9.43725 98.1209 9.43955C98.0819 9.37521 98.0451 9.28789 97.9739 9.25802C97.9371 9.25342 97.9003 9.24423 97.8659 9.23734C97.7877 9.19597 97.7923 9.1707 97.6522 9.173C97.6016 9.21206 97.4936 9.2787 97.4385 9.30168C97.3994 9.32006 97.3649 9.30627 97.3328 9.32236C97.2868 9.34993 97.25 9.41887 97.2041 9.44185C97.1673 9.46253 97.1237 9.44414 97.0984 9.47402C97.0892 9.50619 97.0777 9.53836 97.0662 9.57053C96.9881 9.71989 96.9352 9.91521 96.841 10.0531C96.7905 10.1289 96.6894 10.2024 96.6388 10.2783C96.6112 10.315 96.6112 10.3679 96.5837 10.407C96.5032 10.531 96.4021 10.6551 96.3286 10.7815C96.2941 10.8367 96.3217 10.9171 96.2964 10.986C96.2735 11.0481 96.1517 11.1859 96.1149 11.2526C96.0896 11.2985 96.131 11.3491 96.1034 11.3927C96.0666 11.4525 95.9747 11.4939 95.9334 11.5536C95.9242 11.5697 95.8621 11.6754 95.8575 11.6823C95.8575 11.7121 95.8575 11.7397 95.8575 11.7696C95.8437 11.8018 95.7817 11.8201 95.7633 11.8569C95.7426 11.8937 95.7495 11.9304 95.7311 11.9649C95.6875 12.0339 95.6186 12.1028 95.5818 12.1786C95.568 12.2384 95.5519 12.2981 95.5404 12.3601C95.5014 12.4681 95.4278 12.5601 95.3566 12.6405C95.2762 12.6336 95.2785 12.5968 95.2302 12.5761C95.159 12.5647 95.0877 12.5555 95.0165 12.544C94.9912 12.567 94.966 12.5876 94.943 12.6083C94.9384 12.7324 94.9545 12.8496 95.0073 12.9507C95.0533 13.0426 95.1521 13.1116 95.1038 13.2724C95.0786 13.3574 95.0234 13.4447 94.9843 13.5183C94.9751 13.5688 94.9637 13.6194 94.9522 13.6676C94.9338 13.7182 94.8855 13.7871 94.8649 13.84C94.8626 13.8699 94.8603 13.8974 94.8557 13.9273C94.835 13.9733 94.7798 14.0284 94.7592 14.0767C94.7592 14.1249 94.7592 14.1709 94.7592 14.2168C94.7454 14.2582 94.7109 14.3271 94.6856 14.3685C94.6351 14.4489 94.511 14.4903 94.4443 14.5684V16.5676C94.4466 16.5699 94.4489 16.5745 94.4512 16.5768C94.4903 16.5951 94.55 16.5859 94.5983 16.6089ZM96.5285 12.6635C96.5584 12.583 96.5193 12.4865 96.54 12.4176C96.5745 12.3027 96.6595 12.2636 96.7215 12.1832C96.7629 12.1281 96.8066 12.0407 96.8594 11.9994C96.8939 11.9741 96.9421 11.958 96.9674 11.9259C96.995 11.8868 97.0019 11.8362 97.0317 11.7972C97.0685 11.7466 97.1397 11.703 97.1696 11.6478C97.2018 11.5927 97.1903 11.4847 97.234 11.4433C97.2638 11.4157 97.3259 11.4318 97.3512 11.3996C97.4132 11.3238 97.4132 11.1882 97.4683 11.1124C97.5097 11.055 97.5947 11.0182 97.6499 10.9722C97.6797 10.947 97.666 10.8849 97.6912 10.855C97.7004 10.8458 97.7257 10.8436 97.7349 10.8344C97.7809 10.7884 97.8199 10.731 97.8521 10.6712C97.8705 10.6712 97.8889 10.6712 97.9049 10.6712C97.9256 10.7815 97.9394 10.9516 97.9049 11.0917C97.8912 11.1653 97.8751 11.2411 97.8613 11.3146C97.8705 11.3767 97.8521 11.5582 97.8613 11.595C97.9118 11.7696 97.9256 12.2544 97.882 12.4521C97.859 12.5624 97.8682 12.8956 97.8176 12.9553C97.8176 12.9645 97.8176 12.9691 97.8176 12.9783C97.7303 12.9875 97.6315 12.9829 97.5511 12.9668C97.4683 12.9484 97.3695 12.976 97.3167 12.9875C97.2202 13.0104 97.0846 12.9829 97.0065 12.9668C96.9398 12.953 96.8709 12.9875 96.8249 12.999C96.6664 13.038 96.4963 12.9346 96.4619 12.8381C96.4481 12.7899 96.5147 12.7117 96.5285 12.6635Z" fill="white"/>
</g>
<defs>
<clipPath id="clip0_94_791">
<rect width="130" height="40.7298" fill="white" transform="translate(0.5 0.964844)"/>
</clipPath>
</defs>
</svg>
